<svg version="1.1" id="Layer_1" xmlns="http://www.w3.org/2000/svg" xmlns:xlink="http://www.w3.org/1999/xlink" x="0px" y="0px"
	 width="100%" viewBox="0 0 500 500" enable-background="new 0 0 500 500" xml:space="preserve">
<path fill="#FFFFFF" opacity="1.000000" stroke="none" 
	d="
M262.000000,501.000000 
	C174.666687,501.000000 87.833374,501.000000 1.000046,501.000000 
	C1.000031,334.333405 1.000031,167.666794 1.000015,1.000136 
	C167.666565,1.000091 334.333130,1.000091 500.999756,1.000045 
	C500.999847,167.666519 500.999847,334.333038 500.999939,500.999786 
	C421.500000,501.000000 342.000000,501.000000 262.000000,501.000000 
M305.596527,195.845047 
	C305.992340,194.772476 306.388184,193.699905 306.847107,192.282608 
	C306.847107,192.282608 307.082886,192.023361 307.765625,191.914246 
	C314.855377,181.196152 318.104736,169.377274 316.562653,156.652756 
	C315.734039,149.815430 314.095398,142.920731 311.655487,136.494934 
	C310.281952,132.877716 306.535828,130.161362 303.671478,126.823067 
	C303.671478,126.823067 303.682983,126.537483 303.843109,125.771164 
	C302.516754,124.549225 301.190369,123.327293 299.869110,122.036201 
	C299.869110,122.036201 299.888763,122.098862 299.967194,121.347809 
	C298.806732,116.547417 294.815430,115.321335 290.257568,113.843140 
	C289.513641,113.507629 288.769684,113.172127 287.775482,112.287857 
	C286.846283,111.530022 285.917053,110.772179 284.909943,109.304764 
	C282.483582,108.482674 280.057190,107.660576 277.959595,106.949867 
	C277.473724,109.485756 277.175079,111.044357 276.191833,112.370201 
	C275.146637,111.806541 274.101410,111.242882 272.956726,110.075668 
	C271.649719,109.665237 270.342743,109.254807 268.345978,108.824982 
	C267.929352,108.643448 267.512756,108.461906 266.903351,107.713455 
	C265.610687,107.439117 264.317993,107.164780 262.350006,106.930939 
	C261.924316,106.795715 261.498657,106.660492 260.943756,105.959335 
	C259.984497,105.881744 259.025269,105.804161 257.300964,105.826141 
	C256.562103,105.630020 255.823227,105.433899 254.670090,104.627739 
	C248.306000,104.086090 241.832932,102.439369 235.312637,106.789024 
	C234.861252,106.810028 234.409882,106.831039 233.465057,106.344345 
	C229.511307,107.388260 225.557541,108.432167 221.603790,109.476082 
	C221.512222,109.314873 221.420639,109.153656 221.329071,108.992447 
	C223.577194,107.479126 225.825333,105.965797 228.671997,104.141014 
	C229.116943,104.100876 229.561874,104.060738 230.389328,104.534271 
	C231.260056,104.027725 232.130783,103.521187 233.684250,102.745628 
	C235.131149,102.532204 236.578033,102.318779 238.542572,102.643127 
	C240.713181,102.183739 242.883789,101.724350 245.885468,101.109688 
	C247.565964,101.199265 249.246445,101.288834 251.114059,102.023697 
	C252.731094,102.063141 254.348114,102.102577 256.650024,102.039635 
	C257.110565,102.058975 257.571136,102.078316 258.438110,102.577316 
	C261.425293,99.720566 259.168701,97.865211 256.727356,95.481361 
	C256.475220,94.655357 256.223083,93.829353 256.471375,92.615852 
	C255.530960,91.813538 254.590561,91.011230 252.884247,90.235489 
	C251.615387,90.324745 250.346512,90.414001 248.900253,89.807610 
	C248.610214,88.913460 248.320175,88.019318 248.828476,87.023109 
	C255.272385,87.471169 257.073761,82.044930 260.651123,77.970291 
	C261.032196,77.295235 261.413300,76.620171 262.252777,75.621132 
	C262.538605,75.148148 262.824432,74.675163 263.684387,74.010139 
	C264.056702,73.323036 264.429047,72.635925 265.126862,71.769447 
	C265.126862,71.769447 265.246552,71.417580 265.853210,71.137024 
	C266.809021,69.752785 267.764832,68.368546 269.290527,66.158981 
	C263.771149,66.158981 259.406616,66.158981 254.249374,66.040924 
	C253.187042,66.124146 252.124710,66.207359 250.147339,66.037109 
	C243.128357,66.471504 236.109375,66.905899 228.219452,67.210167 
	C222.816422,67.457825 217.413406,67.705482 211.380753,67.679390 
	C209.407455,68.006653 207.434174,68.333916 204.983765,68.835518 
	C204.641281,69.195045 204.298813,69.554565 203.311478,70.068924 
	C201.853348,71.696754 200.395218,73.324585 198.998596,74.998474 
	C198.998596,74.998474 198.952408,74.937057 198.328720,75.076241 
	C197.542007,76.043427 196.755280,77.010605 196.000031,78.000305 
	C196.000031,78.000305 195.977753,77.968613 195.326385,78.127235 
	C189.538956,84.076141 183.751526,90.025047 177.999603,96.000694 
	C177.999603,96.000694 177.974411,95.964317 177.321854,96.117905 
	C173.900757,99.757759 170.479660,103.397614 167.004715,106.998550 
	C167.004715,106.998550 167.037674,107.056160 166.389343,107.212524 
	C164.654678,109.017288 162.920013,110.822044 160.102753,113.753136 
	C163.756317,113.940346 165.897614,114.050056 168.615143,114.363289 
	C169.220810,114.378632 169.826477,114.393974 170.842087,114.857574 
	C171.605713,115.113907 172.369339,115.370239 173.276825,116.314056 
	C173.383270,116.522591 173.489716,116.731117 173.264572,117.732674 
	C173.391556,118.853172 173.518539,119.973671 173.402008,121.830521 
	C173.435226,122.602280 173.468445,123.374031 173.008652,124.475693 
	C172.782013,125.000725 172.555374,125.525757 171.780914,126.606613 
	C171.903976,129.084198 172.027039,131.561768 171.771408,134.720001 
	C171.418350,137.830231 170.925552,140.933075 170.760284,144.053253 
	C170.645905,146.213013 171.419159,147.480011 174.230423,145.245529 
	C175.119568,145.181488 176.008713,145.117447 177.198441,145.579803 
	C178.069016,145.743744 178.939590,145.907700 179.810165,146.071640 
	C179.777664,144.742798 179.745148,143.413971 179.857010,141.284393 
	C179.712112,138.084915 179.567215,134.885437 179.880280,131.255356 
	C179.715179,129.947128 179.550079,128.638916 179.280396,126.725143 
	C178.793976,125.826637 178.307556,124.928131 177.995956,123.214661 
	C178.057343,120.805878 178.118729,118.397095 178.888397,116.136604 
	C179.931747,116.062157 180.975113,115.987701 182.771988,115.793152 
	C183.524200,115.720383 184.276428,115.647606 185.503586,115.840515 
	C185.661179,115.930344 185.818771,116.020172 186.076126,116.757774 
	C186.771515,117.145691 187.466919,117.533615 188.589401,118.320404 
	C188.735825,118.877983 188.882248,119.435555 188.553757,120.301170 
	C189.014069,120.871841 189.474396,121.442513 190.227829,122.400063 
	C190.398575,122.688423 190.472015,122.999741 190.202103,124.114563 
	C191.143280,125.738701 192.084457,127.362831 193.534042,129.307175 
	C194.528992,129.116852 195.523926,128.926529 197.342316,128.964249 
	C197.985016,129.807678 198.627731,130.651123 199.040344,132.123383 
	C197.298706,135.102158 195.557068,138.080917 193.206070,141.415436 
	C193.056320,141.884598 192.921646,142.359177 192.754669,142.822113 
	C185.334808,163.393738 188.502670,182.263199 201.984940,199.397934 
	C203.070694,200.777817 204.843750,201.616882 206.001831,203.000000 
	C206.001831,203.000000 206.296143,202.707367 206.161240,203.440765 
	C206.770477,205.296814 207.006073,206.700775 204.427887,207.506149 
	C200.392624,208.766663 196.513748,210.528198 192.569916,212.080826 
	C189.370117,213.340546 186.172241,214.605103 182.317917,216.202728 
	C180.862946,216.407791 179.407990,216.612839 177.484909,216.311203 
	C175.973587,216.782913 174.462265,217.254608 172.317368,217.962830 
	C171.870422,217.944763 171.423492,217.926697 170.377747,217.350571 
	C164.558319,218.042862 158.738876,218.735153 152.038467,219.642883 
	C148.720795,219.553436 145.403122,219.463974 141.801224,218.737732 
	C137.207047,218.463745 132.612885,218.189758 127.273933,218.036987 
	C126.533264,217.924240 125.792603,217.811493 124.913155,217.066574 
	C123.622650,216.986145 122.332153,216.905701 120.135368,216.873016 
	C117.339645,216.268250 116.717255,217.740448 116.753700,220.174423 
	C116.852798,226.793457 116.832230,233.414276 116.306618,240.643051 
	C116.535957,246.171158 114.133598,252.000763 118.447311,257.910828 
	C118.555489,259.626984 118.663666,261.343109 118.245453,263.637909 
	C118.542114,268.326721 118.736938,273.026245 119.227081,277.694763 
	C119.317841,278.559235 120.600067,279.298584 121.646469,280.838989 
	C121.706200,281.907379 121.765938,282.975800 121.298866,284.580505 
	C122.413643,288.740692 123.528427,292.900879 124.890030,297.687469 
	C124.893784,298.133362 124.897530,298.579285 124.403450,299.442139 
	C125.019745,300.994110 125.636040,302.546082 126.606934,304.772980 
	C126.702438,305.524628 126.797943,306.276276 126.366196,307.496490 
	C127.420799,310.356720 128.475403,313.216980 129.836533,316.678375 
	C129.872437,317.123657 129.908340,317.568909 129.452545,318.372742 
	C130.072311,319.613098 130.692078,320.853424 131.676971,322.679108 
	C131.745987,323.129456 131.815018,323.579803 131.391083,324.478302 
	C133.600021,330.802338 135.722473,337.159027 138.086029,343.424744 
	C138.599701,344.786438 139.977463,345.822174 141.265335,347.385101 
	C141.438202,347.677063 141.499771,347.990906 141.208389,349.125732 
	C145.029495,356.738556 148.822876,364.365692 152.726990,371.935699 
	C153.023071,372.509827 154.105026,372.678680 155.144272,373.224030 
	C155.144272,373.224030 155.216461,373.590393 155.117538,374.284271 
	C155.703415,374.864594 156.289276,375.444885 157.179718,376.213562 
	C157.179718,376.213562 157.229858,376.568115 157.102707,377.265564 
	C157.694672,377.851685 158.286636,378.437805 159.177689,379.219666 
	C159.177689,379.219666 159.228516,379.573456 159.118759,380.269135 
	C159.708115,380.853424 160.297470,381.437714 161.370926,382.420166 
	C161.905029,383.299957 162.439148,384.179749 162.932571,385.776215 
	C164.255508,387.190521 165.578430,388.604797 167.208481,390.156036 
	C167.208481,390.156036 167.287750,390.482819 167.139465,391.224030 
	C168.428162,392.481934 169.716843,393.739838 171.543777,395.249329 
	C172.008896,395.880066 172.473999,396.510773 172.923401,397.853424 
	C178.302597,403.504456 183.672256,409.164703 189.095245,414.773376 
	C189.316208,415.001953 190.039139,414.745117 191.016235,414.870422 
	C191.344131,415.248138 191.672012,415.625824 192.041168,416.733154 
	C193.541718,417.721466 195.042252,418.709778 196.856934,419.755890 
	C196.856934,419.755890 196.991562,420.045532 197.078506,420.753632 
	C197.860428,421.095459 198.642349,421.437256 199.913589,421.935760 
	C200.277496,422.287079 200.641418,422.638397 201.076141,423.696869 
	C202.881790,424.710449 204.687439,425.724030 206.826660,426.805176 
	C206.826660,426.805176 206.977737,427.110199 207.052048,427.841553 
	C208.479477,428.499817 209.906906,429.158081 211.733994,429.906647 
	C211.733994,429.906647 211.951263,430.254028 212.048340,430.979858 
	C213.253616,431.508942 214.458893,432.038055 215.916336,432.587891 
	C215.916336,432.587891 216.065323,432.792389 216.106979,433.513824 
	C219.244827,435.550140 222.226334,437.910217 225.568314,439.523712 
	C228.412079,440.896729 231.671082,441.409668 235.355164,442.341919 
	C235.894135,442.608734 236.433105,442.875580 237.102264,443.853760 
	C247.827393,449.130157 263.457092,446.474976 271.367981,437.737488 
	C271.659790,437.548157 271.977386,437.481293 273.070953,437.790405 
	C274.383942,436.876892 275.696899,435.963379 277.151520,434.760284 
	C277.151520,434.760284 277.469299,434.705963 278.255096,434.886871 
	C280.510864,433.291809 282.766602,431.696747 285.192230,429.800232 
	C285.192230,429.800232 285.534821,429.751526 286.298462,429.879364 
	C290.204193,426.931152 294.109955,423.982971 298.255249,420.563965 
	C298.702118,420.305695 299.148956,420.047424 300.306122,419.891632 
	C300.873962,419.269287 301.441803,418.646912 302.280884,417.571747 
	C302.586212,417.408478 302.891541,417.245239 303.900208,417.081268 
	C304.539368,416.316376 305.178528,415.551483 305.956482,414.985260 
	C305.956482,414.985260 305.791870,414.807404 306.503021,414.897217 
	C307.663391,413.586731 308.823761,412.276276 310.225983,410.432312 
	C310.840607,409.965546 311.455231,409.498779 312.792511,409.058746 
	C315.214752,406.417053 317.636993,403.775360 320.312347,400.532959 
	C321.822601,398.994568 323.332855,397.456177 325.567535,395.891632 
	C325.977417,395.141479 326.387268,394.391327 327.066620,393.117035 
	C327.749634,392.427124 328.432648,391.737213 329.802124,390.989441 
	C330.557098,389.707001 331.312073,388.424530 332.255280,386.665649 
	C332.512817,386.448151 332.770355,386.230652 333.726379,385.936401 
	C334.088989,385.180176 334.451569,384.423981 334.948853,383.152802 
	C335.310303,382.773102 335.671722,382.393402 336.731934,381.921326 
	C337.081360,381.152588 337.430756,380.383820 337.857849,379.250793 
	C337.857849,379.250793 338.163727,379.038239 338.835052,378.949158 
	C339.170410,378.205505 339.505737,377.461884 339.975922,376.198547 
	C340.334198,375.806274 340.692474,375.414001 341.728455,374.935852 
	C344.151581,370.624146 346.574677,366.312439 349.086517,361.425201 
	C349.418579,360.957825 349.750610,360.490448 350.808228,359.919830 
	C351.398071,358.408722 351.987946,356.897614 352.620483,354.875916 
	C352.809448,354.598724 352.998413,354.321533 353.864105,353.946075 
	C356.099609,348.757782 358.335144,343.569519 360.621155,337.758270 
	C360.879700,337.198334 361.138214,336.638428 362.056915,335.926819 
	C362.934021,334.396515 364.123260,332.961060 364.622955,331.316101 
	C365.646942,327.945038 366.301056,324.461639 367.103271,320.345642 
	C367.275360,319.932495 367.447449,319.519379 368.256653,318.924377 
	C368.932953,316.303955 369.609283,313.683533 370.278870,310.381104 
	C370.426361,309.956207 370.573883,309.531311 371.345367,308.849731 
	C372.547363,305.065674 373.933350,301.326752 374.876923,297.479340 
	C375.379303,295.430817 375.116119,293.194550 375.153351,290.286133 
	C375.348846,289.561157 375.544312,288.836151 376.346344,287.883057 
	C376.594604,285.928986 376.842834,283.974945 377.007874,281.358521 
	C377.099182,280.926056 377.190491,280.493591 377.936371,279.893799 
	C378.034302,278.279175 378.132202,276.664581 378.168549,274.292572 
	C378.360260,273.563354 378.551971,272.834167 379.324341,271.764648 
	C379.596344,268.187317 379.868347,264.610016 380.058533,260.203613 
	C380.232361,258.833618 380.406189,257.463654 381.217499,255.792786 
	C381.499634,250.200195 381.781799,244.607590 381.955627,238.085007 
	C382.056274,233.074661 382.156921,228.064301 382.942780,222.861786 
	C384.642212,218.128281 384.471039,217.566757 380.289612,216.757156 
	C379.514343,216.793274 378.739075,216.829376 377.544373,216.363510 
	C376.345825,216.822876 375.147278,217.282242 373.227997,217.958130 
	C372.479492,217.952133 371.730957,217.946136 370.404053,217.386093 
	C365.902954,218.055969 361.401886,218.725845 356.017242,219.634216 
	C352.044922,219.543610 348.072632,219.452988 343.759552,218.720901 
	C338.511169,218.464600 333.262787,218.208298 327.351288,218.049072 
	C326.914886,217.968094 326.478455,217.887115 325.874542,217.117599 
	C323.933289,216.997925 321.992065,216.878250 319.291473,216.825775 
	C318.564178,216.621445 317.836914,216.417114 316.876648,215.640167 
	C315.260590,215.381638 313.644562,215.123123 311.362854,214.921799 
	C310.936462,214.807266 310.510071,214.692719 309.901672,213.915726 
	C307.538818,212.973587 304.977600,212.344803 302.864807,211.007568 
	C300.392914,209.443024 296.081787,210.248825 296.018219,205.402985 
	C296.248016,205.156143 296.524567,204.984772 297.624481,204.960220 
	C298.323059,204.170212 299.021637,203.380203 299.923126,201.958298 
	C301.122681,200.181046 302.322235,198.403793 303.790985,196.315369 
	C303.790985,196.315369 303.975372,195.947571 304.408020,195.971970 
	C304.408020,195.971970 304.834778,195.897430 305.596527,195.845047 
z"/>
<path fill="#1A2F4C" opacity="1.000000" stroke="none" 
	d="
M353.187378,354.044373 
	C352.998413,354.321533 352.809448,354.598724 352.327148,355.330505 
	C351.383423,357.197723 350.733032,358.610382 350.082642,360.023041 
	C349.750610,360.490448 349.418579,360.957825 348.740417,361.864441 
	C345.946472,366.543060 343.498627,370.782410 341.050781,375.021729 
	C340.692474,375.414001 340.334198,375.806274 339.623474,376.570862 
	C338.901886,377.641541 338.532806,378.339874 338.163727,379.038239 
	C338.163727,379.038239 337.857849,379.250793 337.523193,379.552002 
	C336.803406,380.573364 336.418274,381.293518 336.033142,382.013672 
	C335.671722,382.393402 335.310303,382.773102 334.588898,383.526001 
	C333.828583,384.603851 333.428223,385.308502 333.027863,386.013153 
	C332.770355,386.230652 332.512817,386.448151 331.857971,387.006256 
	C330.678986,388.580353 329.897308,389.813843 329.115662,391.047333 
	C328.432648,391.737213 327.749634,392.427124 326.633789,393.488556 
	C325.748352,394.545990 325.295746,395.231903 324.843079,395.917786 
	C323.332855,397.456177 321.822601,398.994568 319.868591,400.926758 
	C316.973145,403.891022 314.521515,406.461517 312.069855,409.032013 
	C311.455231,409.498779 310.840607,409.965546 309.782654,410.752350 
	C308.156830,412.317383 306.974335,413.562408 305.791870,414.807404 
	C305.791870,414.807404 305.956482,414.985260 305.587006,414.946411 
	C304.543976,415.632355 303.870422,416.357178 303.196869,417.081970 
	C302.891541,417.245239 302.586212,417.408478 301.826508,417.814056 
	C300.780029,418.633942 300.187927,419.211548 299.595825,419.789124 
	C299.148956,420.047424 298.702118,420.305695 297.793091,420.839844 
	C293.398926,423.994324 289.466858,426.872925 285.534790,429.751526 
	C285.534821,429.751526 285.192230,429.800232 284.764343,429.983337 
	C282.047424,431.679626 279.758362,433.192810 277.469299,434.705994 
	C277.469299,434.705963 277.151520,434.760284 276.739532,434.922913 
	C274.991943,435.902649 273.656342,436.719788 272.320770,437.536957 
	C271.977386,437.481293 271.659790,437.548157 270.825928,437.932983 
	C259.688782,443.180267 249.213303,449.026947 236.972076,443.142395 
	C236.433105,442.875580 235.894135,442.608734 234.800385,442.089844 
	C228.185501,438.822662 222.125412,435.807526 216.065323,432.792389 
	C216.065323,432.792389 215.916336,432.587891 215.613068,432.306396 
	C214.190308,431.434570 213.070786,430.844299 211.951263,430.254028 
	C211.951263,430.254028 211.733994,429.906647 211.373871,429.569092 
	C209.668411,428.524414 208.323074,427.817322 206.977737,427.110199 
	C206.977737,427.110199 206.826660,426.805176 206.499329,426.473022 
	C204.449768,425.090485 202.727539,424.040131 201.005341,422.989746 
	C200.641418,422.638397 200.277496,422.287079 199.535706,421.570312 
	C198.435745,420.818420 197.713654,420.431976 196.991577,420.045532 
	C196.991562,420.045532 196.856934,419.755890 196.536896,419.434296 
	C194.811203,418.076294 193.405563,417.039917 191.999908,416.003510 
	C191.672012,415.625824 191.344131,415.248138 190.636536,414.476013 
	C184.484253,408.434906 178.711685,402.788208 172.939117,397.141510 
	C172.473999,396.510773 172.008896,395.880066 171.225555,394.795227 
	C169.700806,393.055054 168.494278,391.768921 167.287750,390.482819 
	C167.287750,390.482819 167.208481,390.156036 167.005280,389.766876 
	C165.525803,387.938324 164.249527,386.498932 162.973236,385.059540 
	C162.439148,384.179749 161.905029,383.299957 161.129745,381.903381 
	C160.335205,380.782227 159.781860,380.177856 159.228516,379.573456 
	C159.228516,379.573456 159.177689,379.219666 159.007202,378.811066 
	C158.301102,377.791016 157.765488,377.179565 157.229858,376.568115 
	C157.229858,376.568115 157.179718,376.213562 157.008667,375.807007 
	C156.297226,374.797119 155.756851,374.193756 155.216461,373.590393 
	C155.216461,373.590393 155.144272,373.224030 154.956818,372.782074 
	C150.329590,364.335602 145.889832,356.331085 141.450058,348.326569 
	C141.499771,347.990906 141.438202,347.677063 141.132111,346.820984 
	C137.960617,338.847961 134.922318,331.439056 131.884033,324.030151 
	C131.815018,323.579803 131.745987,323.129456 131.586868,322.075439 
	C130.979263,320.319244 130.461761,319.166718 129.944244,318.014191 
	C129.908340,317.568909 129.872437,317.123657 129.739136,316.005707 
	C128.725647,312.564667 127.809547,309.796295 126.893456,307.027924 
	C126.797943,306.276276 126.702438,305.524628 126.531448,304.110107 
	C125.937729,301.973236 125.419502,300.499207 124.901276,299.025177 
	C124.897530,298.579285 124.893784,298.133362 124.836304,296.973694 
	C123.796936,292.187988 122.811302,288.116089 121.825668,284.044189 
	C121.765938,282.975800 121.706200,281.907379 121.610146,280.075562 
	C120.639832,273.894501 119.705841,268.476898 118.771851,263.059265 
	C118.663666,261.343109 118.555489,259.626984 118.443741,257.086975 
	C117.913147,250.853546 117.386124,245.443970 116.859100,240.034393 
	C116.832230,233.414276 116.852798,226.793457 116.753700,220.174423 
	C116.717255,217.740448 117.339645,216.268250 120.854424,217.080688 
	C122.732964,217.425156 123.892448,217.561951 125.051933,217.698746 
	C125.792603,217.811493 126.533264,217.924240 127.997391,218.148163 
	C133.175720,218.631073 137.630585,219.002792 142.085449,219.374527 
	C145.403122,219.463974 148.720795,219.553436 152.925049,219.665070 
	C159.533279,219.094391 165.254913,218.501511 170.976547,217.908630 
	C171.423492,217.926697 171.870422,217.944763 173.006409,217.915588 
	C175.114639,217.518204 176.533829,217.168045 177.953018,216.817886 
	C179.407990,216.612839 180.862946,216.407791 183.048340,216.087875 
	C192.512833,213.165024 201.246902,210.357010 211.364899,207.104080 
	C208.696381,204.789368 207.496262,203.748367 206.296143,202.707367 
	C206.296143,202.707367 206.001831,203.000000 206.056580,202.527756 
	C192.780609,186.982300 187.652130,169.684265 191.941559,149.829788 
	C192.572815,146.907867 193.191132,143.983124 193.815430,141.059692 
	C195.557068,138.080917 197.298706,135.102158 199.456894,131.664520 
	C200.996353,129.556793 202.119278,127.907944 203.514252,126.093582 
	C204.889847,124.651161 205.993378,123.374260 207.402740,121.988731 
	C208.926498,120.652115 210.144379,119.424133 211.622528,118.129608 
	C212.245972,117.681252 212.609177,117.299423 213.320129,116.879227 
	C220.431442,113.511261 227.194962,110.181656 233.958496,106.852051 
	C234.409882,106.831039 234.861252,106.810028 236.034103,106.684875 
	C242.865158,106.133080 248.974762,105.685425 255.084351,105.237778 
	C255.823227,105.433899 256.562103,105.630020 257.918793,106.004974 
	C259.382080,106.297630 260.227509,106.411453 261.072968,106.525269 
	C261.498657,106.660492 261.924316,106.795715 262.923645,107.127411 
	C264.696869,107.642715 265.896515,107.961548 267.096130,108.280373 
	C267.512756,108.461906 267.929352,108.643448 268.879822,109.100494 
	C270.627869,109.810410 271.842041,110.244812 273.056213,110.679214 
	C274.101410,111.242882 275.146637,111.806541 276.651917,112.725571 
	C277.887543,113.444221 278.663116,113.807495 279.591003,114.465622 
	C280.828278,115.459579 281.913239,116.158691 283.208527,117.124664 
	C310.542786,139.113388 312.983398,178.110458 288.797119,203.155334 
	C288.191895,203.782043 287.939911,204.749847 287.287506,206.015930 
	C289.404785,206.616440 291.114227,207.101288 292.915771,207.543945 
	C293.197784,207.456360 293.312866,207.336777 293.238647,207.524811 
	C298.777405,210.130463 304.430542,212.354324 310.083679,214.578186 
	C310.510071,214.692719 310.936462,214.807266 311.961212,215.102554 
	C314.076263,215.593124 315.592926,215.902954 317.109619,216.212769 
	C317.836914,216.417114 318.564178,216.621445 319.974121,217.020844 
	C322.451843,217.412643 324.246948,217.609375 326.042053,217.806122 
	C326.478455,217.887115 326.914886,217.968094 328.015961,218.193207 
	C333.820526,218.679016 338.960419,219.020706 344.100311,219.362381 
	C348.072632,219.452988 352.044922,219.543610 356.875366,219.652008 
	C362.149811,219.093231 366.566132,218.516678 370.982452,217.940140 
	C371.730957,217.946136 372.479492,217.952133 373.938538,217.931244 
	C375.753998,217.558075 376.858917,217.211777 377.963806,216.865479 
	C378.739075,216.829376 379.514343,216.793274 380.896362,217.078751 
	C381.754608,219.284882 382.006104,221.169418 382.257568,223.053955 
	C382.156921,228.064301 382.056274,233.074661 381.845703,238.913422 
	C381.350494,245.192429 380.965240,250.643051 380.580017,256.093658 
	C380.406189,257.463654 380.232361,258.833618 379.916077,260.954834 
	C379.430298,265.172363 379.086975,268.638672 378.743683,272.104950 
	C378.551971,272.834167 378.360260,273.563354 377.962952,274.956421 
	C377.598877,277.100586 377.440338,278.580841 377.281799,280.061127 
	C377.190491,280.493591 377.099182,280.926056 376.849762,281.978027 
	C376.374359,284.435425 376.057068,286.273315 375.739807,288.111176 
	C375.544312,288.836151 375.348846,289.561157 374.940857,290.951843 
	C373.392670,297.447144 372.057037,303.276794 370.721375,309.106415 
	C370.573883,309.531311 370.426361,309.956207 370.022980,310.963135 
	C369.051270,314.065552 368.335419,316.585876 367.619568,319.106232 
	C367.447449,319.519379 367.275360,319.932495 366.849915,320.924408 
	C364.863251,326.361603 363.129974,331.220062 361.396729,336.078491 
	C361.138214,336.638428 360.879700,337.198334 360.313324,338.281403 
	C357.732788,343.884491 355.460114,348.964417 353.187378,354.044373 
M225.222443,266.015411 
	C224.477493,266.027740 223.732559,266.040100 222.551346,265.753418 
	C222.401138,265.661102 222.250931,265.568756 221.838104,264.837555 
	C218.888901,264.568695 215.939713,264.299835 212.146210,264.130371 
	C210.740372,264.209290 209.334534,264.288239 207.325668,264.155334 
	C206.906204,264.204773 206.486725,264.254211 205.281036,264.086029 
	C204.685593,265.708160 204.090134,267.330261 202.917770,268.847137 
	C201.935898,268.944275 200.954041,269.041412 199.151764,269.149750 
	C193.979584,268.263824 195.317596,272.330414 193.867859,274.965302 
	C193.006195,275.130951 192.144531,275.296600 190.528000,275.540741 
	C186.917450,275.245331 187.182343,277.677643 187.184906,280.112701 
	C187.206573,300.734436 187.174072,321.356293 187.178604,341.978088 
	C187.178955,343.595032 187.336288,345.211884 187.438995,347.179718 
	C189.515533,347.340179 191.297287,347.477844 193.580261,348.212250 
	C195.432220,348.335419 197.284164,348.458588 199.900436,348.818024 
	C201.493484,348.964935 203.086548,349.111847 205.034393,349.867371 
	C210.419342,351.646088 215.804291,353.424835 221.767441,355.504639 
	C222.194611,355.575226 222.621796,355.645782 223.456284,356.289154 
	C225.697357,356.978455 227.938431,357.667755 230.734573,358.689087 
	C231.156250,358.760529 231.577942,358.832001 232.415802,359.395599 
	C233.096710,359.437073 233.777618,359.478546 234.458527,359.520050 
	C234.230072,358.718536 234.001617,357.916992 234.185959,356.317322 
	C234.616669,355.900085 235.047394,355.482849 236.119431,355.377716 
	C237.374741,356.056519 238.630035,356.735352 240.032776,358.002106 
	C240.828949,358.238434 241.625122,358.474731 242.421295,358.711060 
	C242.429794,358.192566 242.438293,357.674042 242.190033,356.431274 
	C241.909073,355.447266 241.628113,354.463257 241.874084,352.902832 
	C242.569962,352.608459 243.265854,352.314087 244.761063,352.133423 
	C245.111176,351.073608 245.461288,350.013794 245.981186,348.036316 
	C245.991226,328.152344 245.713806,308.261658 246.177734,288.388275 
	C246.326584,282.011322 243.941101,278.072296 238.775650,274.409424 
	C237.905930,273.833344 237.036194,273.257294 235.907883,272.174164 
	C235.136551,271.655701 234.365234,271.137238 233.337128,269.966766 
	C231.919586,269.255371 230.502045,268.544006 228.790268,267.474426 
	C228.495880,267.365570 228.234116,267.203918 227.976517,266.402435 
	C227.310471,266.287903 226.644409,266.173370 225.222443,266.015411 
M251.075562,348.667267 
	C251.415375,349.113159 251.755188,349.559082 252.237305,350.570374 
	C253.163681,350.742096 254.090057,350.913818 254.954559,351.796570 
	C255.289825,352.858398 255.625107,353.920258 256.030548,355.672668 
	C255.980408,356.131470 255.930267,356.590302 255.407043,357.390137 
	C255.773056,357.910278 256.139069,358.430420 256.505096,358.950562 
	C257.022430,358.454224 257.539764,357.957886 258.597717,357.052979 
	C259.590942,356.524139 260.584198,355.995270 262.443420,355.741333 
	C263.347412,355.832489 264.251404,355.923645 264.893188,356.547852 
	C264.597687,357.401215 264.302155,358.254578 264.021393,359.065369 
	C265.163635,358.876526 266.622467,358.635376 268.762299,358.242371 
	C269.158051,358.044220 269.553802,357.846069 270.501404,357.398254 
	C271.081329,356.971405 271.661255,356.544556 273.006042,356.129211 
	C273.987610,355.967499 274.969147,355.805786 276.645142,355.408783 
	C280.409973,353.875549 284.174805,352.342316 288.646271,350.835205 
	C289.073761,350.652802 289.501221,350.470367 290.613037,350.487396 
	C292.393250,349.940399 294.173462,349.393402 296.634827,348.946869 
	C297.073059,348.827026 297.511292,348.707214 298.788239,348.818634 
	C301.911957,348.434174 305.093719,348.287048 308.129700,347.544067 
	C309.283600,347.261658 310.941742,345.615784 310.950012,344.580048 
	C311.125854,322.528290 311.109863,300.474915 311.099548,278.421875 
	C311.098145,275.427063 309.659332,274.631836 306.587677,276.051422 
	C306.587677,276.051422 306.159637,276.078674 305.503693,275.988373 
	C304.842468,275.963562 304.181274,275.938751 303.319427,275.076813 
	C303.187561,273.197998 303.055664,271.319183 302.913147,269.289368 
	C300.763641,269.289368 299.154053,269.289368 296.834991,269.102020 
	C296.107422,269.033936 295.379852,268.965851 294.335052,268.135956 
	C294.253906,267.036774 294.172729,265.937622 293.943726,264.073547 
	C288.232178,264.561859 282.520660,265.050140 276.050781,265.657379 
	C275.034790,265.781769 274.018799,265.906128 272.595123,265.533997 
	C266.092773,267.120636 260.031799,269.345947 256.740387,276.726349 
	C255.153198,278.442322 253.566025,280.158295 251.285278,282.018585 
	C250.871017,282.830658 250.099930,283.640869 250.095596,284.455139 
	C250.021957,298.317780 250.006226,312.181274 250.121689,326.043365 
	C250.129990,327.040039 251.249588,328.027466 252.099792,329.862823 
	C252.013840,331.900452 251.927902,333.938080 251.080215,336.154816 
	C251.068359,340.121460 251.056519,344.088135 251.075562,348.667267 
M272.697083,203.922714 
	C283.588654,198.131317 291.894897,189.376205 294.559937,177.606522 
	C298.075867,162.079285 297.047333,146.647873 286.557343,133.018097 
	C280.479675,125.121315 272.693329,120.134514 263.772339,116.523155 
	C261.848999,115.744568 259.463135,116.174133 257.450745,115.538956 
	C246.774933,112.169342 236.862442,114.265991 226.842148,118.590599 
	C218.690430,122.108772 213.456573,128.585541 207.843277,134.779236 
	C205.311096,137.573242 202.703201,140.675415 204.917603,145.547104 
	C204.630127,146.026428 204.342636,146.505753 203.312958,147.089157 
	C202.536545,148.458725 201.355469,149.742752 201.045059,151.210846 
	C197.063370,170.042053 201.420486,186.781296 216.158463,199.257538 
	C226.896606,208.347763 239.844452,213.447861 254.564667,210.945999 
	C257.920502,210.375626 261.342804,209.757599 264.490082,208.533188 
	C267.173065,207.489395 269.504791,205.542694 272.697083,203.922714 
z"/>
<path fill="#1E314D" opacity="1.000000" stroke="none" 
	d="
M251.062378,66.290588 
	C252.124710,66.207359 253.187042,66.124146 254.947479,66.367371 
	C259.147522,66.693825 262.649475,66.693825 266.296692,66.693825 
	C265.848450,68.710121 265.547485,70.063850 265.246552,71.417580 
	C265.246552,71.417580 265.126862,71.769447 264.640808,71.905869 
	C263.806580,72.762245 263.458405,73.482208 263.110260,74.202171 
	C262.824432,74.675163 262.538605,75.148148 261.706512,75.827698 
	C260.798157,76.734718 260.436096,77.435173 260.074005,78.135628 
	C257.073761,82.044930 255.272385,87.471169 248.048843,86.946869 
	C245.513672,87.580078 243.758133,88.289536 241.612839,88.970810 
	C240.525909,89.113602 239.828735,89.284584 239.131546,89.455566 
	C239.152740,89.925362 239.173920,90.395149 239.195114,90.864944 
	C241.452667,90.864944 243.710220,90.864944 246.288391,90.948082 
	C247.431885,90.855225 248.254761,90.679237 249.077652,90.503250 
	C250.346512,90.414001 251.615387,90.324745 253.366791,90.516296 
	C254.556549,91.532516 255.263748,92.267929 255.970947,93.003349 
	C256.223083,93.829353 256.475220,94.655357 256.970825,96.109451 
	C257.486755,98.524254 257.759216,100.310951 258.031677,102.097656 
	C257.571136,102.078316 257.110565,102.058975 256.021606,101.854843 
	C253.904419,101.572838 252.415680,101.475624 250.926941,101.378403 
	C249.246445,101.288834 247.565964,101.199265 245.065079,101.085129 
	C242.171432,101.408821 240.098190,101.757072 238.024933,102.105339 
	C236.578033,102.318779 235.131149,102.532204 233.012909,102.807861 
	C231.563324,103.253586 230.785080,103.637093 230.006821,104.020592 
	C229.561874,104.060738 229.116943,104.100876 228.012817,104.263168 
	C222.547333,106.913277 217.741013,109.441231 212.625977,112.041718 
	C211.194565,113.042664 210.071869,113.971069 208.630127,114.952049 
	C207.265335,116.028252 206.219604,117.051880 204.878326,118.224274 
	C203.029755,120.205681 201.476715,122.038338 199.608459,123.993591 
	C198.368469,125.656204 197.443665,127.196205 196.518860,128.736206 
	C195.523926,128.926529 194.528992,129.116852 193.256622,128.793610 
	C192.135498,126.631363 191.291809,124.982689 190.448120,123.334023 
	C190.472015,122.999741 190.398575,122.688423 190.129013,121.907349 
	C189.696350,120.940804 189.362503,120.466965 189.028656,119.993134 
	C188.882248,119.435555 188.735825,118.877983 188.356705,117.787788 
	C187.408127,116.873451 186.692245,116.491722 185.976364,116.110001 
	C185.818771,116.020172 185.661179,115.930344 185.171478,115.397385 
	C182.898514,114.603271 180.957657,114.252304 178.723984,113.945206 
	C178.197479,114.305534 177.963791,114.621994 177.443146,114.926933 
	C176.774658,114.947716 176.393158,114.980019 175.763092,114.855400 
	C174.676697,114.455872 173.838852,114.213272 172.563477,113.987335 
	C171.561340,114.139107 170.996735,114.274216 170.432144,114.409332 
	C169.826477,114.393974 169.220810,114.378632 168.110931,113.985886 
	C166.493698,113.199554 165.380661,112.790611 164.600647,112.504021 
	C165.539734,110.404724 166.288712,108.730446 167.037674,107.056160 
	C167.037674,107.056160 167.004715,106.998550 167.383179,106.998535 
	C171.165894,103.320450 174.570160,99.642387 177.974426,95.964325 
	C177.974411,95.964317 177.999603,96.000694 178.337357,95.991394 
	C183.111633,91.796509 187.623825,87.686935 191.944931,83.385399 
	C193.522903,81.814575 194.646729,79.787521 195.977753,77.968613 
	C195.977753,77.968613 196.000031,78.000305 196.330780,77.983040 
	C197.425171,76.956200 198.188782,75.946632 198.952408,74.937057 
	C198.952408,74.937057 198.998596,74.998474 199.318039,74.977875 
	C201.077087,73.276207 202.516708,71.595146 203.956329,69.914085 
	C204.298813,69.554565 204.641281,69.195045 205.656769,68.852562 
	C208.223312,68.564117 210.116837,68.258629 212.010376,67.953133 
	C217.413406,67.705482 222.816422,67.457825 228.973511,67.527649 
	C235.803253,67.884628 241.880447,68.003632 247.953156,67.887527 
	C248.999359,67.867523 250.026459,66.848267 251.062378,66.290588 
z"/>
<path fill="#EAE8DE" opacity="1.000000" stroke="none" 
	d="
M292.823700,207.586136 
	C291.114227,207.101288 289.404785,206.616440 287.287506,206.015930 
	C287.939911,204.749847 288.191895,203.782043 288.797119,203.155334 
	C312.983398,178.110458 310.542786,139.113388 283.160095,116.767601 
	C281.747131,115.486038 280.592896,114.828407 279.438690,114.170776 
	C278.663116,113.807495 277.887543,113.444221 276.994202,112.841949 
	C277.175079,111.044357 277.473724,109.485756 277.959595,106.949867 
	C280.057190,107.660576 282.483582,108.482674 284.594055,109.658409 
	C283.002350,109.836868 281.726532,109.661674 280.450714,109.486481 
	C280.320709,109.832092 280.190674,110.177704 280.060669,110.523315 
	C282.288269,112.080490 284.515900,113.637672 286.964294,115.445526 
	C290.132721,118.453835 293.080353,121.211479 296.157837,124.263336 
	C297.457184,126.068901 298.626740,127.580269 299.837097,129.391968 
	C300.241821,130.144348 300.605743,130.596390 301.035706,131.381256 
	C301.827301,133.120087 302.552826,134.526062 303.242462,136.240845 
	C303.697968,137.176941 304.189362,137.804245 304.713745,138.696594 
	C304.875885,139.292755 305.005035,139.623856 305.126770,140.187469 
	C305.200470,140.753891 305.406219,140.968094 305.816284,141.419754 
	C306.069489,142.487381 306.242950,143.197845 306.335266,144.224152 
	C306.738342,145.483612 307.222626,146.427231 307.698822,147.648636 
	C307.769867,148.287476 307.849060,148.648544 307.902405,149.393524 
	C308.267914,151.180084 308.659271,152.582718 309.045471,154.454285 
	C309.020355,160.614471 309.000427,166.305710 308.715790,172.256622 
	C308.282837,174.009216 308.114655,175.502136 307.868774,177.269119 
	C307.718170,177.915878 307.645264,178.288544 307.276123,178.838928 
	C306.672211,180.344910 306.364563,181.673172 305.916138,183.322052 
	C305.341705,184.964859 304.908020,186.287048 304.193024,187.775696 
	C300.242523,193.514511 296.527557,199.057907 292.961731,204.695663 
	C292.513306,205.404633 292.850494,206.610504 292.823700,207.586136 
z"/>
<path fill="#BD8638" opacity="1.000000" stroke="none" 
	d="
M307.572357,178.661209 
	C307.645264,178.288544 307.718170,177.915878 308.147583,177.081146 
	C308.662872,175.078384 308.821716,173.537659 308.980530,171.996933 
	C309.000427,166.305710 309.020355,160.614471 309.286682,154.255157 
	C308.998108,152.061249 308.463165,150.535416 307.928223,149.009598 
	C307.849060,148.648544 307.769867,148.287476 307.797974,147.291595 
	C307.408997,145.740616 306.912720,144.824463 306.416443,143.908325 
	C306.242950,143.197845 306.069489,142.487381 306.028992,141.326569 
	C305.819366,140.569138 305.476776,140.262039 305.134186,139.954956 
	C305.005035,139.623856 304.875885,139.292755 304.802185,138.357056 
	C304.331238,137.145645 303.804810,136.538849 303.278381,135.932053 
	C302.552826,134.526062 301.827301,133.120087 301.037842,131.063492 
	C300.581421,129.972473 300.188843,129.532059 299.796295,129.091629 
	C298.626740,127.580269 297.457184,126.068901 296.349976,124.009506 
	C297.451141,123.321571 298.489929,123.181686 299.749298,123.311630 
	C301.207581,124.566803 302.445282,125.552147 303.682983,126.537491 
	C303.682983,126.537483 303.671478,126.823067 303.766266,127.255493 
	C304.245056,128.457306 304.629059,129.226715 305.014709,130.293900 
	C305.532410,131.096924 306.048431,131.602142 306.792664,132.387238 
	C314.546539,146.529556 317.636597,160.943741 312.428070,176.378143 
	C310.665985,181.599854 308.865723,186.808655 307.082886,192.023361 
	C307.082886,192.023361 306.847107,192.282608 306.564087,192.577148 
	C305.884338,193.262222 305.487640,193.652756 304.820862,194.177826 
	C304.358978,194.857422 304.167175,195.402496 303.975403,195.947571 
	C303.975372,195.947571 303.790985,196.315369 303.380341,196.214630 
	C303.471222,193.278992 303.972778,190.444122 304.474335,187.609238 
	C304.908020,186.287048 305.341705,184.964859 306.185577,183.108734 
	C306.921326,181.270279 307.246826,179.965744 307.572357,178.661209 
z"/>
<path fill="#2F3E55" opacity="1.000000" stroke="none" 
	d="
M177.821136,124.029625 
	C178.307556,124.928131 178.793976,125.826637 179.219650,127.568367 
	C179.246719,129.503052 179.334518,130.594498 179.422333,131.685959 
	C179.567215,134.885437 179.712112,138.084915 179.554871,141.905090 
	C178.467773,143.368347 177.682816,144.210876 176.897858,145.053406 
	C176.008713,145.117447 175.119568,145.181488 173.576248,145.087097 
	C172.664764,141.298904 172.407440,137.669128 172.150116,134.039352 
	C172.027039,131.561768 171.903976,129.084198 172.308472,126.307724 
	C173.057907,125.387817 173.279785,124.766808 173.501663,124.145790 
	C173.468445,123.374031 173.435226,122.602280 173.839767,121.456024 
	C175.458725,122.064224 176.639938,123.046921 177.821136,124.029625 
z"/>
<path fill="#F7EED5" opacity="1.000000" stroke="none" 
	d="
M305.013062,129.996109 
	C304.629059,129.226715 304.245056,128.457306 303.859802,127.363541 
	C306.535828,130.161362 310.281952,132.877716 311.655487,136.494934 
	C314.095398,142.920731 315.734039,149.815430 316.562653,156.652756 
	C318.104736,169.377274 314.855377,181.196152 307.424255,191.968811 
	C308.865723,186.808655 310.665985,181.599854 312.428070,176.378143 
	C317.636597,160.943741 314.546539,146.529556 306.801758,132.102478 
	C306.059418,131.023941 305.536255,130.510025 305.013062,129.996109 
z"/>
<path fill="#DAE0E6" opacity="1.000000" stroke="none" 
	d="
M193.510742,141.237564 
	C193.191132,143.983124 192.572815,146.907867 191.941559,149.829788 
	C187.652130,169.684265 192.780609,186.982300 206.204376,202.381393 
	C204.843750,201.616882 203.070694,200.777817 201.984940,199.397934 
	C188.502670,182.263199 185.334808,163.393738 192.754669,142.822113 
	C192.921646,142.359177 193.056320,141.884598 193.510742,141.237564 
z"/>
<path fill="#DAE0E6" opacity="1.000000" stroke="none" 
	d="
M212.934692,111.969193 
	C217.741013,109.441231 222.547333,106.913277 227.713562,104.418900 
	C225.825333,105.965797 223.577194,107.479126 221.329071,108.992447 
	C221.420639,109.153656 221.512222,109.314873 221.603790,109.476082 
	C225.557541,108.432167 229.511307,107.388260 233.711777,106.598198 
	C227.194962,110.181656 220.431442,113.511261 213.344025,116.530365 
	C214.951462,114.489128 216.882782,112.758400 218.814087,111.027672 
	C218.632355,110.849136 218.450607,110.670609 218.268875,110.492073 
	C216.490814,110.984444 214.712753,111.476814 212.934692,111.969193 
z"/>
<path fill="#DAE0E6" opacity="1.000000" stroke="none" 
	d="
M237.037170,443.498077 
	C249.213303,449.026947 259.688782,443.180267 270.652649,438.109985 
	C263.457092,446.474976 247.827393,449.130157 237.037170,443.498077 
z"/>
<path fill="#C6A77B" opacity="1.000000" stroke="none" 
	d="
M304.193024,187.775696 
	C303.972778,190.444122 303.471222,193.278992 303.245728,196.370209 
	C302.322235,198.403793 301.122681,200.181046 299.526825,202.381607 
	C298.369629,203.499557 297.608765,204.194199 296.847900,204.888855 
	C296.524567,204.984772 296.248016,205.156143 295.570007,205.749451 
	C294.532227,206.444962 293.942627,206.793976 293.353027,207.143005 
	C293.312866,207.336777 293.197784,207.456360 292.915771,207.543945 
	C292.850494,206.610504 292.513306,205.404633 292.961731,204.695663 
	C296.527557,199.057907 300.242523,193.514511 304.193024,187.775696 
z"/>
<path fill="#DAE0E6" opacity="1.000000" stroke="none" 
	d="
M206.228699,203.074066 
	C207.496262,203.748367 208.696381,204.789368 211.364899,207.104080 
	C201.246902,210.357010 192.512833,213.165024 183.376129,215.920273 
	C186.172241,214.605103 189.370117,213.340546 192.569916,212.080826 
	C196.513748,210.528198 200.392624,208.766663 204.427887,207.506149 
	C207.006073,206.700775 206.770477,205.296814 206.228699,203.074066 
z"/>
<path fill="#DAE0E6" opacity="1.000000" stroke="none" 
	d="
M141.329224,348.726135 
	C145.889832,356.331085 150.329590,364.335602 154.795532,372.687988 
	C154.105026,372.678680 153.023071,372.509827 152.726990,371.935699 
	C148.822876,364.365692 145.029495,356.738556 141.329224,348.726135 
z"/>
<path fill="#4E5669" opacity="1.000000" stroke="none" 
	d="
M195.652069,78.047920 
	C194.646729,79.787521 193.522903,81.814575 191.944931,83.385399 
	C187.623825,87.686935 183.111633,91.796509 178.319611,95.978027 
	C183.751526,90.025047 189.538956,84.076141 195.652069,78.047920 
z"/>
<path fill="#DAE0E6" opacity="1.000000" stroke="none" 
	d="
M172.931259,397.497467 
	C178.711685,402.788208 184.484253,408.434906 190.392517,414.398010 
	C190.039139,414.745117 189.316208,415.001953 189.095245,414.773376 
	C183.672256,409.164703 178.302597,403.504456 172.931259,397.497467 
z"/>
<path fill="#DAE0E6" opacity="1.000000" stroke="none" 
	d="
M131.637558,324.254211 
	C134.922318,331.439056 137.960617,338.847961 140.978073,346.632446 
	C139.977463,345.822174 138.599701,344.786438 138.086029,343.424744 
	C135.722473,337.159027 133.600021,330.802338 131.637558,324.254211 
z"/>
<path fill="#C59C60" opacity="1.000000" stroke="none" 
	d="
M299.528717,123.041801 
	C298.489929,123.181686 297.451141,123.321571 296.220184,123.715294 
	C293.080353,121.211479 290.132721,118.453835 287.121368,115.145035 
	C287.380371,114.008125 287.703064,113.422371 288.025757,112.836624 
	C288.769684,113.172127 289.513641,113.507629 290.606964,114.313286 
	C293.933807,117.221909 296.911285,119.660393 299.888763,122.098862 
	C299.888763,122.098862 299.869110,122.036201 299.802979,122.311775 
	C299.736847,122.587349 299.528717,123.041801 299.528717,123.041801 
z"/>
<path fill="#4E5669" opacity="1.000000" stroke="none" 
	d="
M250.604858,66.163849 
	C250.026459,66.848267 248.999359,67.867523 247.953156,67.887527 
	C241.880447,68.003632 235.803253,67.884628 229.408981,67.592712 
	C236.109375,66.905899 243.128357,66.471504 250.604858,66.163849 
z"/>
<path fill="#DAE0E6" opacity="1.000000" stroke="none" 
	d="
M170.677155,217.629608 
	C165.254913,218.501511 159.533279,219.094391 153.365540,219.557343 
	C158.738876,218.735153 164.558319,218.042862 170.677155,217.629608 
z"/>
<path fill="#DAE0E6" opacity="1.000000" stroke="none" 
	d="
M254.877228,104.932755 
	C248.974762,105.685425 242.865158,106.133080 236.337952,106.528671 
	C241.832932,102.439369 248.306000,104.086090 254.877228,104.932755 
z"/>
<path fill="#DAE0E6" opacity="1.000000" stroke="none" 
	d="
M116.582855,240.338715 
	C117.386124,245.443970 117.913147,250.853546 118.315567,256.676697 
	C114.133598,252.000763 116.535957,246.171158 116.582855,240.338715 
z"/>
<path fill="#DAE0E6" opacity="1.000000" stroke="none" 
	d="
M216.086151,433.153107 
	C222.125412,435.807526 228.185501,438.822662 234.495987,442.070435 
	C231.671082,441.409668 228.412079,440.896729 225.568314,439.523712 
	C222.226334,437.910217 219.244827,435.550140 216.086151,433.153107 
z"/>
<path fill="#D2DBE2" opacity="1.000000" stroke="none" 
	d="
M371.033386,308.978088 
	C372.057037,303.276794 373.392670,297.447144 374.963379,291.330261 
	C375.116119,293.194550 375.379303,295.430817 374.876923,297.479340 
	C373.933350,301.326752 372.547363,305.065674 371.033386,308.978088 
z"/>
<path fill="#D2DBE2" opacity="1.000000" stroke="none" 
	d="
M380.898743,255.943222 
	C380.965240,250.643051 381.350494,245.192429 381.899841,239.378418 
	C381.781799,244.607590 381.499634,250.200195 380.898743,255.943222 
z"/>
<path fill="#D2DBE2" opacity="1.000000" stroke="none" 
	d="
M293.238647,207.524796 
	C293.942627,206.793976 294.532227,206.444962 295.423065,205.947113 
	C296.081787,210.248825 300.392914,209.443024 302.864807,211.007568 
	C304.977600,212.344803 307.538818,212.973587 309.992676,214.246948 
	C304.430542,212.354324 298.777405,210.130463 293.238647,207.524796 
z"/>
<path fill="#DAE0E6" opacity="1.000000" stroke="none" 
	d="
M118.508652,263.348572 
	C119.705841,268.476898 120.639832,273.894501 121.453102,279.703918 
	C120.600067,279.298584 119.317841,278.559235 119.227081,277.694763 
	C118.736938,273.026245 118.542114,268.326721 118.508652,263.348572 
z"/>
<path fill="#D2DBE2" opacity="1.000000" stroke="none" 
	d="
M343.929932,219.041641 
	C338.960419,219.020706 333.820526,218.679016 328.347534,218.144669 
	C333.262787,218.208298 338.511169,218.464600 343.929932,219.041641 
z"/>
<path fill="#4E5669" opacity="1.000000" stroke="none" 
	d="
M265.549866,71.277298 
	C265.547485,70.063850 265.848450,68.710121 266.296692,66.693825 
	C262.649475,66.693825 259.147522,66.693825 255.343842,66.426407 
	C259.406616,66.158981 263.771149,66.158981 269.290527,66.158981 
	C267.764832,68.368546 266.809021,69.752785 265.549866,71.277298 
z"/>
<path fill="#4E5669" opacity="1.000000" stroke="none" 
	d="
M177.648132,96.041115 
	C174.570160,99.642387 171.165894,103.320450 167.410095,107.017990 
	C170.479660,103.397614 173.900757,99.757759 177.648132,96.041115 
z"/>
<path fill="#DAE0E6" opacity="1.000000" stroke="none" 
	d="
M141.943329,219.056122 
	C137.630585,219.002792 133.175720,218.631073 128.369781,218.087555 
	C132.612885,218.189758 137.207047,218.463745 141.943329,219.056122 
z"/>
<path fill="#4E5669" opacity="1.000000" stroke="none" 
	d="
M177.908539,123.622147 
	C176.639938,123.046921 175.458725,122.064224 173.961517,121.087845 
	C173.518539,119.973671 173.391556,118.853172 173.736725,117.332199 
	C174.809799,116.291916 175.410721,115.652115 176.011642,115.012314 
	C176.393158,114.980019 176.774658,114.947716 177.540283,115.094589 
	C177.914001,115.546181 177.999252,115.784363 178.180099,115.988312 
	C178.118729,118.397095 178.057343,120.805878 177.908539,123.622147 
z"/>
<path fill="#D2DBE2" opacity="1.000000" stroke="none" 
	d="
M361.726807,336.002655 
	C363.129974,331.220062 364.863251,326.361603 366.851990,321.263824 
	C366.301056,324.461639 365.646942,327.945038 364.622955,331.316101 
	C364.123260,332.961060 362.934021,334.396515 361.726807,336.002655 
z"/>
<path fill="#D2DBE2" opacity="1.000000" stroke="none" 
	d="
M370.693237,217.663116 
	C366.566132,218.516678 362.149811,219.093231 357.317139,219.532745 
	C361.401886,218.725845 365.902954,218.055969 370.693237,217.663116 
z"/>
<path fill="#D2DBE2" opacity="1.000000" stroke="none" 
	d="
M353.525757,353.995239 
	C355.460114,348.964417 357.732788,343.884491 360.288086,338.592896 
	C358.335144,343.569519 356.099609,348.757782 353.525757,353.995239 
z"/>
<path fill="#DAE0E6" opacity="1.000000" stroke="none" 
	d="
M285.916626,429.815430 
	C289.466858,426.872925 293.398926,423.994324 297.673340,421.075256 
	C294.109955,423.982971 290.204193,426.931152 285.916626,429.815430 
z"/>
<path fill="#DAE0E6" opacity="1.000000" stroke="none" 
	d="
M121.562263,284.312347 
	C122.811302,288.116089 123.796936,292.187988 124.712891,296.660461 
	C123.528427,292.900879 122.413643,288.740692 121.562263,284.312347 
z"/>
<path fill="#4E5669" opacity="1.000000" stroke="none" 
	d="
M166.713501,107.134338 
	C166.288712,108.730446 165.539734,110.404724 164.600647,112.504021 
	C165.380661,112.790611 166.493698,113.199554 167.822815,113.884132 
	C165.897614,114.050056 163.756317,113.940346 160.102753,113.753136 
	C162.920013,110.822044 164.654678,109.017288 166.713501,107.134338 
z"/>
<path fill="#D2DBE2" opacity="1.000000" stroke="none" 
	d="
M341.389618,374.978790 
	C343.498627,370.782410 345.946472,366.543060 348.696045,362.152222 
	C346.574677,366.312439 344.151581,370.624146 341.389618,374.978790 
z"/>
<path fill="#4E5669" opacity="1.000000" stroke="none" 
	d="
M171.960754,134.379669 
	C172.407440,137.669128 172.664764,141.298904 173.246948,145.169434 
	C171.419159,147.480011 170.645905,146.213013 170.760284,144.053253 
	C170.925552,140.933075 171.418350,137.830231 171.960754,134.379669 
z"/>
<path fill="#F7EED5" opacity="1.000000" stroke="none" 
	d="
M299.927979,121.723343 
	C296.911285,119.660393 293.933807,117.221909 290.887512,114.442795 
	C294.815430,115.321335 298.806732,116.547417 299.927979,121.723343 
z"/>
<path fill="#DAE0E6" opacity="1.000000" stroke="none" 
	d="
M196.930588,128.850220 
	C197.443665,127.196205 198.368469,125.656204 199.756195,124.278168 
	C201.071671,124.883644 201.924210,125.327156 202.893356,125.892532 
	C203.009979,126.014397 203.242188,126.259102 203.242188,126.259102 
	C202.119278,127.907944 200.996353,129.556793 199.571930,131.350098 
	C198.627731,130.651123 197.985016,129.807678 196.930588,128.850220 
z"/>
<path fill="#DBBA8B" opacity="1.000000" stroke="none" 
	d="
M287.900635,112.562241 
	C287.703064,113.422371 287.380371,114.008125 286.900574,114.894363 
	C284.515900,113.637672 282.288269,112.080490 280.060669,110.523315 
	C280.190674,110.177704 280.320709,109.832092 280.450714,109.486481 
	C281.726532,109.661674 283.002350,109.836868 284.632996,110.013199 
	C285.917053,110.772179 286.846283,111.530022 287.900635,112.562241 
z"/>
<path fill="#D2DBE2" opacity="1.000000" stroke="none" 
	d="
M379.033997,271.934814 
	C379.086975,268.638672 379.430298,265.172363 379.956970,261.369385 
	C379.868347,264.610016 379.596344,268.187317 379.033997,271.934814 
z"/>
<path fill="#DAE0E6" opacity="1.000000" stroke="none" 
	d="
M312.431183,409.045380 
	C314.521515,406.461517 316.973145,403.891022 319.742004,401.227112 
	C317.636993,403.775360 315.214752,406.417053 312.431183,409.045380 
z"/>
<path fill="#DAE0E6" opacity="1.000000" stroke="none" 
	d="
M126.629822,307.262207 
	C127.809547,309.796295 128.725647,312.564667 129.585876,315.705139 
	C128.475403,313.216980 127.420799,310.356720 126.629822,307.262207 
z"/>
<path fill="#D2DBE2" opacity="1.000000" stroke="none" 
	d="
M248.988953,90.155426 
	C248.254761,90.679237 247.431885,90.855225 246.244858,90.590012 
	C244.588013,89.765533 243.295303,89.382263 242.002594,88.998993 
	C243.758133,88.289536 245.513672,87.580078 247.649673,86.997894 
	C248.320175,88.019318 248.610214,88.913460 248.988953,90.155426 
z"/>
<path fill="#D2DBE2" opacity="1.000000" stroke="none" 
	d="
M367.938110,319.015320 
	C368.335419,316.585876 369.051270,314.065552 370.026337,311.304138 
	C369.609283,313.683533 368.932953,316.303955 367.938110,319.015320 
z"/>
<path fill="#DAE0E6" opacity="1.000000" stroke="none" 
	d="
M277.862183,434.796448 
	C279.758362,433.192810 282.047424,431.679626 284.679413,430.134094 
	C282.766602,431.696747 280.510864,433.291809 277.862183,434.796448 
z"/>
<path fill="#D2DBE2" opacity="1.000000" stroke="none" 
	d="
M382.600159,222.957870 
	C382.006104,221.169418 381.754608,219.284882 381.284912,217.053955 
	C384.471039,217.566757 384.642212,218.128281 382.600159,222.957870 
z"/>
<path fill="#D2DBE2" opacity="1.000000" stroke="none" 
	d="
M238.283752,102.374229 
	C240.098190,101.757072 242.171432,101.408821 244.649536,101.162766 
	C242.883789,101.724350 240.713181,102.183739 238.283752,102.374229 
z"/>
<path fill="#D2DBE2" opacity="1.000000" stroke="none" 
	d="
M258.234894,102.337486 
	C257.759216,100.310951 257.486755,98.524254 257.194336,96.348656 
	C259.168701,97.865211 261.425293,99.720566 258.234894,102.337486 
z"/>
<path fill="#4E5669" opacity="1.000000" stroke="none" 
	d="
M203.633911,69.991501 
	C202.516708,71.595146 201.077087,73.276207 199.287277,74.954842 
	C200.395218,73.324585 201.853348,71.696754 203.633911,69.991501 
z"/>
<path fill="#D2DBE2" opacity="1.000000" stroke="none" 
	d="
M376.043091,287.997131 
	C376.057068,286.273315 376.374359,284.435425 376.891357,282.309204 
	C376.842834,283.974945 376.594604,285.928986 376.043091,287.997131 
z"/>
<path fill="#2F3E55" opacity="1.000000" stroke="none" 
	d="
M179.016800,113.901329 
	C180.957657,114.252304 182.898514,114.603271 184.934006,115.264542 
	C184.276428,115.647606 183.524200,115.720383 182.121307,115.682541 
	C180.652679,115.015068 179.834747,114.458199 179.016800,113.901329 
z"/>
<path fill="#4E5669" opacity="1.000000" stroke="none" 
	d="
M211.695557,67.816261 
	C210.116837,68.258629 208.223312,68.564117 205.895325,68.765396 
	C207.434174,68.333916 209.407455,68.006653 211.695557,67.816261 
z"/>
<path fill="#4E5669" opacity="1.000000" stroke="none" 
	d="
M177.048157,145.316605 
	C177.682816,144.210876 178.467773,143.368347 179.482666,142.305466 
	C179.745148,143.413971 179.777664,144.742798 179.810165,146.071640 
	C178.939590,145.907700 178.069016,145.743744 177.048157,145.316605 
z"/>
<path fill="#D2DBE2" opacity="1.000000" stroke="none" 
	d="
M325.958313,217.461853 
	C324.246948,217.609375 322.451843,217.412643 320.353760,216.987244 
	C321.992065,216.878250 323.933289,216.997925 325.958313,217.461853 
z"/>
<path fill="#DAE0E6" opacity="1.000000" stroke="none" 
	d="
M162.952911,385.417877 
	C164.249527,386.498932 165.525803,387.938324 166.851730,389.698395 
	C165.578430,388.604797 164.255508,387.190521 162.952911,385.417877 
z"/>
<path fill="#DAE0E6" opacity="1.000000" stroke="none" 
	d="
M124.652359,299.233643 
	C125.419502,300.499207 125.937729,301.973236 126.354141,303.772644 
	C125.636040,302.546082 125.019745,300.994110 124.652359,299.233643 
z"/>
<path fill="#F7EED5" opacity="1.000000" stroke="none" 
	d="
M299.749298,123.311630 
	C299.528717,123.041801 299.736847,122.587349 299.800415,122.346359 
	C301.190369,123.327293 302.516754,124.549225 303.763062,126.154327 
	C302.445282,125.552147 301.207581,124.566803 299.749298,123.311630 
z"/>
<path fill="#D2DBE2" opacity="1.000000" stroke="none" 
	d="
M316.993134,215.926483 
	C315.592926,215.902954 314.076263,215.593124 312.294037,215.073944 
	C313.644562,215.123123 315.260590,215.381638 316.993134,215.926483 
z"/>
<path fill="#DAE0E6" opacity="1.000000" stroke="none" 
	d="
M201.040741,423.343323 
	C202.727539,424.040131 204.449768,425.090485 206.332550,426.439209 
	C204.687439,425.724030 202.881790,424.710449 201.040741,423.343323 
z"/>
<path fill="#DAE0E6" opacity="1.000000" stroke="none" 
	d="
M192.020538,416.368347 
	C193.405563,417.039917 194.811203,418.076294 196.379822,419.405396 
	C195.042252,418.709778 193.541718,417.721466 192.020538,416.368347 
z"/>
<path fill="#DAE0E6" opacity="1.000000" stroke="none" 
	d="
M306.147461,414.852295 
	C306.974335,413.562408 308.156830,412.317383 309.661713,411.019104 
	C308.823761,412.276276 307.663391,413.586731 306.147461,414.852295 
z"/>
<path fill="#DAE0E6" opacity="1.000000" stroke="none" 
	d="
M167.213608,390.853424 
	C168.494278,391.768921 169.700806,393.055054 170.956421,394.669434 
	C169.716843,393.739838 168.428162,392.481934 167.213608,390.853424 
z"/>
<path fill="#DAE0E6" opacity="1.000000" stroke="none" 
	d="
M177.718964,216.564545 
	C176.533829,217.168045 175.114639,217.518204 173.323196,217.797333 
	C174.462265,217.254608 175.973587,216.782913 177.718964,216.564545 
z"/>
<path fill="#D2DBE2" opacity="1.000000" stroke="none" 
	d="
M251.020508,101.701050 
	C252.415680,101.475624 253.904419,101.572838 255.679153,101.906036 
	C254.348114,102.102577 252.731094,102.063141 251.020508,101.701050 
z"/>
<path fill="#D2DBE2" opacity="1.000000" stroke="none" 
	d="
M377.609070,279.977478 
	C377.440338,278.580841 377.598877,277.100586 377.993774,275.335144 
	C378.132202,276.664581 378.034302,278.279175 377.609070,279.977478 
z"/>
<path fill="#2F3E55" opacity="1.000000" stroke="none" 
	d="
M175.763092,114.855392 
	C175.410721,115.652115 174.809799,116.291916 173.902512,116.935684 
	C173.489716,116.731117 173.383270,116.522591 173.201202,115.693329 
	C173.084076,114.705292 173.042542,114.337982 173.001022,113.970673 
	C173.838852,114.213272 174.676697,114.455872 175.763092,114.855392 
z"/>
<path fill="#DAE0E6" opacity="1.000000" stroke="none" 
	d="
M190.325104,123.724289 
	C191.291809,124.982689 192.135498,126.631363 193.002411,128.633499 
	C192.084457,127.362831 191.143280,125.738701 190.325104,123.724289 
z"/>
<path fill="#DAE0E6" opacity="1.000000" stroke="none" 
	d="
M129.698395,318.193481 
	C130.461761,319.166718 130.979263,320.319244 131.404297,321.782776 
	C130.692078,320.853424 130.072311,319.613098 129.698395,318.193481 
z"/>
<path fill="#DAE0E6" opacity="1.000000" stroke="none" 
	d="
M266.999756,107.996918 
	C265.896515,107.961548 264.696869,107.642715 263.261292,107.107162 
	C264.317993,107.164780 265.610687,107.439117 266.999756,107.996918 
z"/>
<path fill="#DAE0E6" opacity="1.000000" stroke="none" 
	d="
M272.695862,437.663696 
	C273.656342,436.719788 274.991943,435.902649 276.668701,435.067688 
	C275.696899,435.963379 274.383942,436.876892 272.695862,437.663696 
z"/>
<path fill="#D2DBE2" opacity="1.000000" stroke="none" 
	d="
M350.445435,359.971436 
	C350.733032,358.610382 351.383423,357.197723 352.305847,355.585785 
	C351.987946,356.897614 351.398071,358.408722 350.445435,359.971436 
z"/>
<path fill="#D2DBE2" opacity="1.000000" stroke="none" 
	d="
M377.754089,216.614502 
	C376.858917,217.211777 375.753998,217.558075 374.298920,217.822998 
	C375.147278,217.282242 376.345825,216.822876 377.754089,216.614502 
z"/>
<path fill="#D2DBE2" opacity="1.000000" stroke="none" 
	d="
M329.458893,391.018372 
	C329.897308,389.813843 330.678986,388.580353 331.763855,387.244476 
	C331.312073,388.424530 330.557098,389.707001 329.458893,391.018372 
z"/>
<path fill="#DAE0E6" opacity="1.000000" stroke="none" 
	d="
M273.006470,110.377441 
	C271.842041,110.244812 270.627869,109.810410 269.224731,109.110191 
	C270.342743,109.254807 271.649719,109.665237 273.006470,110.377441 
z"/>
<path fill="#DAE0E6" opacity="1.000000" stroke="none" 
	d="
M124.982544,217.382660 
	C123.892448,217.561951 122.732964,217.425156 121.307564,217.056808 
	C122.332153,216.905701 123.622650,216.986145 124.982544,217.382660 
z"/>
<path fill="#DAE0E6" opacity="1.000000" stroke="none" 
	d="
M207.014893,427.475891 
	C208.323074,427.817322 209.668411,428.524414 211.174042,429.523926 
	C209.906906,429.158081 208.479477,428.499817 207.014893,427.475891 
z"/>
<path fill="#DAE0E6" opacity="1.000000" stroke="none" 
	d="
M178.723984,113.945206 
	C179.834747,114.458199 180.652679,115.015068 181.744537,115.742592 
	C180.975113,115.987701 179.931747,116.062157 178.534241,116.062454 
	C177.999252,115.784363 177.914001,115.546181 177.827240,115.106110 
	C177.963791,114.621994 178.197479,114.305534 178.723984,113.945206 
z"/>
<path fill="#DAE0E6" opacity="1.000000" stroke="none" 
	d="
M211.999802,430.616943 
	C213.070786,430.844299 214.190308,431.434570 215.487000,432.296021 
	C214.458893,432.038055 213.253616,431.508942 211.999802,430.616943 
z"/>
<path fill="#D2DBE2" opacity="1.000000" stroke="none" 
	d="
M256.221161,92.809601 
	C255.263748,92.267929 254.556549,91.532516 253.749756,90.503014 
	C254.590561,91.011230 255.530960,91.813538 256.221161,92.809601 
z"/>
<path fill="#4E5669" opacity="1.000000" stroke="none" 
	d="
M198.640564,75.006653 
	C198.188782,75.946632 197.425171,76.956200 196.315063,77.971786 
	C196.755280,77.010605 197.542007,76.043427 198.640564,75.006653 
z"/>
<path fill="#4E5669" opacity="1.000000" stroke="none" 
	d="
M179.651306,131.470657 
	C179.334518,130.594498 179.246719,129.503052 179.271942,127.871140 
	C179.550079,128.638916 179.715179,129.947128 179.651306,131.470657 
z"/>
<path fill="#DAE0E6" opacity="1.000000" stroke="none" 
	d="
M261.008362,106.242302 
	C260.227509,106.411453 259.382080,106.297630 258.301331,105.955200 
	C259.025269,105.804161 259.984497,105.881744 261.008362,106.242302 
z"/>
<path fill="#DAE0E6" opacity="1.000000" stroke="none" 
	d="
M230.198074,104.277435 
	C230.785080,103.637093 231.563324,103.253586 232.671539,102.942368 
	C232.130783,103.521187 231.260056,104.027725 230.198074,104.277435 
z"/>
<path fill="#F7EED5" opacity="1.000000" stroke="none" 
	d="
M297.236206,204.924530 
	C297.608765,204.194199 298.369629,203.499557 299.425354,202.697556 
	C299.021637,203.380203 298.323059,204.170212 297.236206,204.924530 
z"/>
<path fill="#F7EED5" opacity="1.000000" stroke="none" 
	d="
M305.090912,194.043304 
	C305.487640,193.652756 305.884338,193.262222 306.532532,192.749512 
	C306.388184,193.699905 305.992340,194.772476 305.268982,195.563187 
	C304.991241,194.868652 305.041077,194.455978 305.090912,194.043304 
z"/>
<path fill="#DAE0E6" opacity="1.000000" stroke="none" 
	d="
M303.548523,417.081604 
	C303.870422,416.357178 304.543976,415.632355 305.517639,414.847076 
	C305.178528,415.551483 304.539368,416.316376 303.548523,417.081604 
z"/>
<path fill="#D2DBE2" opacity="1.000000" stroke="none" 
	d="
M325.205322,395.904724 
	C325.295746,395.231903 325.748352,394.545990 326.499084,393.750610 
	C326.387268,394.391327 325.977417,395.141479 325.205322,395.904724 
z"/>
<path fill="#DAE0E6" opacity="1.000000" stroke="none" 
	d="
M188.791199,120.147148 
	C189.362503,120.466965 189.696350,120.940804 189.982452,121.713913 
	C189.474396,121.442513 189.014069,120.871841 188.791199,120.147148 
z"/>
<path fill="#4E5669" opacity="1.000000" stroke="none" 
	d="
M173.255157,124.310745 
	C173.279785,124.766808 173.057907,125.387817 172.582367,126.029816 
	C172.555374,125.525757 172.782013,125.000725 173.255157,124.310745 
z"/>
<path fill="#DAE0E6" opacity="1.000000" stroke="none" 
	d="
M299.950989,419.840393 
	C300.187927,419.211548 300.780029,418.633942 301.690857,418.040466 
	C301.441803,418.646912 300.873962,419.269287 299.950989,419.840393 
z"/>
<path fill="#DAE0E6" opacity="1.000000" stroke="none" 
	d="
M197.035034,420.399597 
	C197.713654,420.431976 198.435745,420.818420 199.291061,421.491943 
	C198.642349,421.437256 197.860428,421.095459 197.035034,420.399597 
z"/>
<path fill="#D2DBE2" opacity="1.000000" stroke="none" 
	d="
M336.382538,381.967499 
	C336.418274,381.293518 336.803406,380.573364 337.484375,379.734131 
	C337.430756,380.383820 337.081360,381.152588 336.382538,381.967499 
z"/>
<path fill="#DAE0E6" opacity="1.000000" stroke="none" 
	d="
M186.026245,116.433884 
	C186.692245,116.491722 187.408127,116.873451 188.143158,117.588348 
	C187.466919,117.533615 186.771515,117.145691 186.026245,116.433884 
z"/>
<path fill="#4E5669" opacity="1.000000" stroke="none" 
	d="
M172.563477,113.987335 
	C173.042542,114.337982 173.084076,114.705292 173.129272,115.349586 
	C172.369339,115.370239 171.605713,115.113907 170.637115,114.633453 
	C170.996735,114.274216 171.561340,114.139107 172.563477,113.987335 
z"/>
<path fill="#D2DBE2" opacity="1.000000" stroke="none" 
	d="
M333.377136,385.974792 
	C333.428223,385.308502 333.828583,384.603851 334.521545,383.783478 
	C334.451569,384.423981 334.088989,385.180176 333.377136,385.974792 
z"/>
<path fill="#DAE0E6" opacity="1.000000" stroke="none" 
	d="
M159.173645,379.921295 
	C159.781860,380.177856 160.335205,380.782227 160.887695,381.704285 
	C160.297470,381.437714 159.708115,380.853424 159.173645,379.921295 
z"/>
<path fill="#D2DBE2" opacity="1.000000" stroke="none" 
	d="
M338.499390,378.993713 
	C338.532806,378.339874 338.901886,377.641541 339.556030,376.830719 
	C339.505737,377.461884 339.170410,378.205505 338.499390,378.993713 
z"/>
<path fill="#DAE0E6" opacity="1.000000" stroke="none" 
	d="
M157.166290,376.916840 
	C157.765488,377.179565 158.301102,377.791016 158.857666,378.713196 
	C158.286636,378.437805 157.694672,377.851685 157.166290,376.916840 
z"/>
<path fill="#DAE0E6" opacity="1.000000" stroke="none" 
	d="
M155.166992,373.937317 
	C155.756851,374.193756 156.297226,374.797119 156.856384,375.712830 
	C156.289276,375.444885 155.703415,374.864594 155.166992,373.937317 
z"/>
<path fill="#4E5669" opacity="1.000000" stroke="none" 
	d="
M263.397339,74.106155 
	C263.458405,73.482208 263.806580,72.762245 264.478027,71.995560 
	C264.429047,72.635925 264.056702,73.323036 263.397339,74.106155 
z"/>
<path fill="#4E5669" opacity="1.000000" stroke="none" 
	d="
M260.362549,78.052963 
	C260.436096,77.435173 260.798157,76.734718 261.477295,75.989685 
	C261.413300,76.620171 261.032196,77.295235 260.362549,78.052963 
z"/>
<path fill="#C6A77B" opacity="1.000000" stroke="none" 
	d="
M304.820862,194.177826 
	C305.041077,194.455978 304.991241,194.868652 304.888092,195.589386 
	C304.834778,195.897430 304.408020,195.971970 304.191711,195.959778 
	C304.167175,195.402496 304.358978,194.857422 304.820862,194.177826 
z"/>
<path fill="#F8F9FA" opacity="1.000000" stroke="none" 
	d="
M251.978821,281.874268 
	C253.566025,280.158295 255.153198,278.442322 257.296387,276.423706 
	C262.902496,272.757538 267.952637,269.394012 273.002808,266.030457 
	C274.018799,265.906128 275.034790,265.781769 276.853241,265.748230 
	C283.134338,265.505554 288.612946,265.171997 294.091553,264.838440 
	C294.172729,265.937622 294.253906,267.036774 294.265625,268.943817 
	C294.138000,272.569519 294.032440,275.387299 294.029297,278.205200 
	C294.009613,295.959320 293.965851,313.713715 294.055603,331.467346 
	C294.070099,334.334473 293.441162,336.350952 290.326019,336.775085 
	C287.392944,337.174500 284.455292,337.704346 281.507355,337.800964 
	C270.602325,338.158325 262.339783,343.655426 255.016434,351.085541 
	C254.090057,350.913818 253.163681,350.742096 252.398651,350.183563 
	C252.435394,349.192322 252.310791,348.587921 252.252533,347.526672 
	C252.159912,343.371826 252.000931,339.673767 251.841949,335.975708 
	C251.927902,333.938080 252.013840,331.900452 252.187729,329.082031 
	C252.338470,323.191193 252.492828,318.080261 252.444839,312.971222 
	C252.347427,302.605011 252.140564,292.239868 251.978821,281.874268 
z"/>
<path fill="#FEFEFE" opacity="1.000000" stroke="none" 
	d="
M238.908249,275.045013 
	C243.941101,278.072296 246.326584,282.011322 246.177734,288.388275 
	C245.713806,308.261658 245.991226,328.152344 245.493927,348.500854 
	C243.932877,349.022430 242.859070,349.079407 241.480255,348.997986 
	C237.113312,345.916534 233.051361,342.973511 228.973999,339.734497 
	C228.300064,339.322113 227.641525,339.205719 226.656281,339.081024 
	C225.906799,338.975250 225.483994,338.877777 225.009918,338.500031 
	C224.296921,338.186432 223.635223,338.153107 222.608765,338.087097 
	C220.816132,337.738373 219.388245,337.422394 217.902710,336.736145 
	C215.890289,336.272705 213.935547,336.179565 211.561600,336.104401 
	C208.835129,335.437073 206.527863,334.751770 204.525055,333.997406 
	C204.624725,332.930756 204.419922,331.933228 204.152313,330.475098 
	C204.129120,311.028717 204.168701,292.042908 204.568481,272.942108 
	C205.308197,269.985931 205.687729,267.144806 206.067261,264.303650 
	C206.486725,264.254211 206.906204,264.204773 207.740311,264.612000 
	C211.775497,265.333099 215.396042,265.597504 219.408752,265.830261 
	C220.567520,265.691193 221.334122,265.583832 222.100739,265.476440 
	C222.250931,265.568756 222.401138,265.661102 222.799835,266.218811 
	C224.025925,266.838837 225.003540,266.993439 226.323639,267.142700 
	C227.112396,267.088074 227.558670,267.038757 228.004959,266.989441 
	C228.234116,267.203918 228.495880,267.365570 228.950516,268.030640 
	C230.605148,269.264160 232.099533,269.941467 233.593918,270.618774 
	C234.365234,271.137238 235.136551,271.655701 236.006927,272.792297 
	C237.040054,273.955292 237.974152,274.500153 238.908249,275.045013 
z"/>
<path fill="#DBBA8B" opacity="1.000000" stroke="none" 
	d="
M204.055161,146.985077 
	C204.342636,146.505753 204.630127,146.026428 205.160339,145.148178 
	C205.540054,144.642380 205.677048,144.535492 206.082031,144.711823 
	C207.486633,147.069626 208.623230,149.144196 209.790070,151.548126 
	C210.448975,152.987946 211.077621,154.098419 211.754288,155.542145 
	C212.438553,156.713837 213.074783,157.552277 213.732635,158.683197 
	C213.854950,159.353027 213.955673,159.730362 214.070145,160.437012 
	C215.009216,161.870682 215.934540,162.975037 216.996704,164.395874 
	C223.107437,171.139282 229.081329,177.566193 235.184601,184.264496 
	C236.197571,184.999420 237.081161,185.462967 238.082764,186.176010 
	C238.507217,186.616379 238.813675,186.807236 239.214508,187.301483 
	C240.216797,188.448181 241.124725,189.291504 241.702393,190.252136 
	C240.759903,190.524323 239.949051,191.011612 239.566116,190.782791 
	C235.665329,188.451767 231.727768,186.154694 228.022446,183.534256 
	C225.703552,181.894302 223.505066,179.104935 220.815430,182.059875 
	C218.199188,184.934204 220.674255,187.431320 222.897598,189.163101 
	C226.678345,192.107956 230.734283,194.699524 234.781158,197.761948 
	C241.434677,203.947586 248.707336,204.081650 256.648499,201.317902 
	C259.885986,200.191162 263.507507,200.167999 267.356018,199.759979 
	C269.150757,199.924942 270.543823,199.972672 271.929565,200.320160 
	C271.938141,201.017746 271.954071,201.415619 271.945801,201.913589 
	C271.921661,202.013702 272.047668,202.176636 271.701294,202.239380 
	C263.298004,207.252731 254.497070,208.598511 245.151718,208.412247 
	C226.165268,208.033859 207.357544,192.624695 203.122803,174.024231 
	C201.028702,164.826187 202.169098,155.941605 204.055161,146.985077 
z"/>
<path fill="#EDF2F4" opacity="1.000000" stroke="none" 
	d="
M269.949585,357.647919 
	C269.553802,357.846069 269.158051,358.044220 268.378967,357.953796 
	C267.598663,357.084412 267.201691,356.503601 267.017029,355.638123 
	C272.555634,352.850616 277.881958,350.347870 283.208313,347.845123 
	C283.007172,347.353973 282.806030,346.862793 282.604889,346.371643 
	C274.695892,347.005310 268.148682,351.267883 261.577423,355.466431 
	C260.584198,355.995270 259.590942,356.524139 257.970215,357.161987 
	C256.855194,357.196991 256.367645,357.123047 255.880127,357.049103 
	C255.930267,356.590302 255.980408,356.131470 256.261658,355.122040 
	C258.080536,352.919861 259.505829,351.063843 261.283478,349.651123 
	C270.361786,342.436493 281.205353,340.214294 292.361420,339.364807 
	C296.164398,339.075226 296.976959,337.650726 296.951447,334.157166 
	C296.810333,314.842316 296.864532,295.525818 296.917023,276.210083 
	C296.923279,273.902618 297.325653,271.596252 297.544464,269.289368 
	C299.154053,269.289368 300.763641,269.289368 302.913147,269.289368 
	C303.055664,271.319183 303.187561,273.197998 303.281006,275.951660 
	C303.216949,294.917389 303.183014,313.008270 303.169037,331.099182 
	C303.161530,340.810822 303.176971,340.810822 294.755981,343.985382 
	C291.312317,344.756714 288.285919,345.502808 285.259521,346.248901 
	C285.505249,347.025543 285.750977,347.802185 285.996704,348.578827 
	C289.336487,347.367981 292.676239,346.157135 296.314636,345.073364 
	C298.740967,345.041412 301.109375,345.401245 302.921112,344.560883 
	C304.398712,343.875458 306.163605,341.762268 306.174561,340.270203 
	C306.331573,318.874207 306.212372,297.476196 306.159637,276.078674 
	C306.159637,276.078674 306.587677,276.051422 307.011963,276.264099 
	C307.967834,277.443268 308.959290,278.407745 308.963409,279.376465 
	C309.053040,300.304291 308.988129,321.232819 309.087555,342.160553 
	C309.100403,344.867859 308.184082,345.958893 305.556702,346.395660 
	C302.971008,346.825562 300.481323,347.833221 297.949524,348.587402 
	C297.511292,348.707214 297.073059,348.827026 296.067963,348.655731 
	C293.643646,349.005707 291.786163,349.646851 289.928711,350.287964 
	C289.501221,350.470367 289.073761,350.652802 288.070557,350.593384 
	C283.646790,352.115723 279.798767,353.879883 275.950714,355.644073 
	C274.969147,355.805786 273.987610,355.967499 272.307190,356.116333 
	C271.055450,356.618286 270.502502,357.133118 269.949585,357.647919 
z"/>
<path fill="#DFE5E9" opacity="1.000000" stroke="none" 
	d="
M239.885345,357.414154 
	C238.630035,356.735352 237.374741,356.056519 235.652985,354.935669 
	C224.925659,348.311188 213.854691,344.483063 201.609558,342.882874 
	C196.201859,342.530090 194.663300,339.932343 195.000900,334.976227 
	C195.449921,328.384735 195.164581,321.739960 195.116913,315.118622 
	C195.020493,301.726624 194.871689,288.334961 194.744476,274.943176 
	C195.317596,272.330414 193.979584,268.263824 199.745361,269.470337 
	C200.771988,271.666412 201.572525,273.540192 201.581360,275.417725 
	C201.672165,294.734344 201.714539,314.052216 201.568954,333.368195 
	C201.538208,337.446991 202.470337,339.235565 207.070633,339.443970 
	C220.065994,340.032684 231.749756,344.339417 241.347153,353.479248 
	C241.628113,354.463257 241.909073,355.447266 241.885986,356.771973 
	C241.016403,357.213165 240.450882,357.313660 239.885345,357.414154 
z"/>
<path fill="#3D372F" opacity="1.000000" stroke="none" 
	d="
M205.814026,144.428589 
	C205.677048,144.535492 205.540054,144.642380 205.168610,144.864288 
	C202.703201,140.675415 205.311096,137.573242 207.843277,134.779236 
	C213.456573,128.585541 218.690430,122.108772 226.842148,118.590599 
	C236.862442,114.265991 246.774933,112.169342 257.450745,115.538956 
	C259.463135,116.174133 261.848999,115.744568 263.772339,116.523155 
	C272.693329,120.134514 280.479675,125.121315 286.557343,133.018097 
	C297.047333,146.647873 298.075867,162.079285 294.559937,177.606522 
	C291.894897,189.376205 283.588654,198.131317 272.350464,203.655640 
	C272.018433,202.984573 272.033051,202.580612 272.047668,202.176636 
	C272.047668,202.176636 271.921661,202.013702 272.277283,201.881165 
	C285.425903,192.723618 293.050201,180.763870 293.945007,164.822510 
	C295.170105,142.995743 279.448151,122.361656 257.051727,117.692848 
	C236.395035,113.386703 213.513687,124.802002 205.814026,144.428589 
z"/>
<path fill="#EDF2F4" opacity="1.000000" stroke="none" 
	d="
M204.679596,349.258759 
	C203.086548,349.111847 201.493484,348.964935 199.406403,348.376038 
	C196.967941,347.827850 195.023483,347.721680 193.079041,347.615509 
	C191.297287,347.477844 189.515533,347.340179 187.438995,347.179718 
	C187.336288,345.211884 187.178955,343.595032 187.178604,341.978088 
	C187.174072,321.356293 187.206573,300.734436 187.184906,280.112701 
	C187.182343,277.677643 186.917450,275.245331 191.042953,275.915802 
	C191.634644,277.938507 191.777145,279.586121 191.778091,281.233795 
	C191.789307,300.761078 191.726852,320.288727 191.870193,339.814911 
	C191.882263,341.459473 193.237503,343.094147 194.363281,344.882812 
	C195.845352,345.316254 196.931625,345.841827 198.020599,345.847504 
	C210.340469,345.911682 221.407394,350.016998 231.900482,356.515045 
	C231.963074,357.537384 231.981354,358.220398 231.999619,358.903442 
	C231.577942,358.832001 231.156250,358.760529 230.343658,358.223633 
	C227.651505,357.077576 225.350250,356.396942 223.048981,355.716370 
	C222.621796,355.645782 222.194611,355.575226 221.331573,355.066345 
	C215.490326,352.838287 210.084961,351.048523 204.679596,349.258759 
z"/>
<path fill="#414A5C" opacity="1.000000" stroke="none" 
	d="
M297.189728,269.195679 
	C297.325653,271.596252 296.923279,273.902618 296.917023,276.210083 
	C296.864532,295.525818 296.810333,314.842316 296.951447,334.157166 
	C296.976959,337.650726 296.164398,339.075226 292.361420,339.364807 
	C281.205353,340.214294 270.361786,342.436493 261.283478,349.651123 
	C259.505829,351.063843 258.080536,352.919861 256.226562,354.776733 
	C255.625107,353.920258 255.289825,352.858398 254.985504,351.441040 
	C262.339783,343.655426 270.602325,338.158325 281.507355,337.800964 
	C284.455292,337.704346 287.392944,337.174500 290.326019,336.775085 
	C293.441162,336.350952 294.070099,334.334473 294.055603,331.467346 
	C293.965851,313.713715 294.009613,295.959320 294.029297,278.205200 
	C294.032440,275.387299 294.138000,272.569519 294.424255,269.324707 
	C295.379852,268.965851 296.107422,269.033936 297.189728,269.195679 
z"/>
<path fill="#383D46" opacity="1.000000" stroke="none" 
	d="
M271.701294,202.239380 
	C272.033051,202.580612 272.018433,202.984573 271.997864,203.691986 
	C269.504791,205.542694 267.173065,207.489395 264.490082,208.533188 
	C261.342804,209.757599 257.920502,210.375626 254.564667,210.945999 
	C239.844452,213.447861 226.896606,208.347763 216.158463,199.257538 
	C201.420486,186.781296 197.063370,170.042053 201.045059,151.210846 
	C201.355469,149.742752 202.536545,148.458725 203.684052,147.037109 
	C202.169098,155.941605 201.028702,164.826187 203.122803,174.024231 
	C207.357544,192.624695 226.165268,208.033859 245.151718,208.412247 
	C254.497070,208.598511 263.298004,207.252731 271.701294,202.239380 
z"/>
<path fill="#525C6D" opacity="1.000000" stroke="none" 
	d="
M241.610626,353.191040 
	C231.749756,344.339417 220.065994,340.032684 207.070633,339.443970 
	C202.470337,339.235565 201.538208,337.446991 201.568954,333.368195 
	C201.714539,314.052216 201.672165,294.734344 201.581360,275.417725 
	C201.572525,273.540192 200.771988,271.666412 200.155548,269.464722 
	C200.954041,269.041412 201.935898,268.944275 203.349304,269.294250 
	C203.923309,270.846619 204.065811,271.951874 204.208298,273.057129 
	C204.168701,292.042908 204.129120,311.028717 204.027802,330.857056 
	C204.050919,332.488586 204.135757,333.277557 204.220581,334.066498 
	C206.527863,334.751770 208.835129,335.437073 211.850998,336.351135 
	C214.359848,336.755402 216.160110,336.930908 217.960373,337.106415 
	C219.388245,337.422394 220.816132,337.738373 222.781830,338.331421 
	C223.900162,338.665771 224.480667,338.723053 225.061188,338.780334 
	C225.483994,338.877777 225.906799,338.975250 226.827606,339.323486 
	C227.880219,339.726318 228.434814,339.878418 228.989410,340.030518 
	C233.051361,342.973511 237.113312,345.916534 241.593262,349.288116 
	C242.661423,350.484344 243.311584,351.252014 243.961731,352.019714 
	C243.265854,352.314087 242.569962,352.608459 241.610626,353.191040 
z"/>
<path fill="#414A5C" opacity="1.000000" stroke="none" 
	d="
M305.831665,276.033508 
	C306.212372,297.476196 306.331573,318.874207 306.174561,340.270203 
	C306.163605,341.762268 304.398712,343.875458 302.921112,344.560883 
	C301.109375,345.401245 298.740967,345.041412 296.285187,344.832825 
	C295.791473,344.148407 295.530182,343.980072 295.173279,343.960144 
	C303.176971,340.810822 303.161530,340.810822 303.169037,331.099182 
	C303.183014,313.008270 303.216949,294.917389 303.381317,276.370178 
	C304.181274,275.938751 304.842468,275.963562 305.831665,276.033508 
z"/>
<path fill="#414A5C" opacity="1.000000" stroke="none" 
	d="
M193.968719,344.733429 
	C193.237503,343.094147 191.882263,341.459473 191.870193,339.814911 
	C191.726852,320.288727 191.789307,300.761078 191.778091,281.233795 
	C191.777145,279.586121 191.634644,277.938507 191.420380,275.876556 
	C192.144531,275.296600 193.006195,275.130951 194.306168,274.954224 
	C194.871689,288.334961 195.020493,301.726624 195.116913,315.118622 
	C195.164581,321.739960 195.449921,328.384735 195.000900,334.976227 
	C194.663300,339.932343 196.201859,342.530090 201.351135,343.166260 
	C198.949188,343.995514 196.458954,344.364471 193.968719,344.733429 
z"/>
<path fill="#D2DBE2" opacity="1.000000" stroke="none" 
	d="
M298.368896,348.703003 
	C300.481323,347.833221 302.971008,346.825562 305.556702,346.395660 
	C308.184082,345.958893 309.100403,344.867859 309.087555,342.160553 
	C308.988129,321.232819 309.053040,300.304291 308.963409,279.376465 
	C308.959290,278.407745 307.967834,277.443268 307.226379,276.268433 
	C309.659332,274.631836 311.098145,275.427063 311.099548,278.421875 
	C311.109863,300.474915 311.125854,322.528290 310.950012,344.580048 
	C310.941742,345.615784 309.283600,347.261658 308.129700,347.544067 
	C305.093719,348.287048 301.911957,348.434174 298.368896,348.703003 
z"/>
<path fill="#414A5C" opacity="1.000000" stroke="none" 
	d="
M251.632050,281.946411 
	C252.140564,292.239868 252.347427,302.605011 252.444839,312.971222 
	C252.492828,318.080261 252.338470,323.191193 252.064056,328.660217 
	C251.249588,328.027466 250.129990,327.040039 250.121689,326.043365 
	C250.006226,312.181274 250.021957,298.317780 250.095596,284.455139 
	C250.099930,283.640869 250.871017,282.830658 251.632050,281.946411 
z"/>
<path fill="#6E7B88" opacity="1.000000" stroke="none" 
	d="
M194.363281,344.882812 
	C196.458954,344.364471 198.949188,343.995514 201.697845,343.343140 
	C213.854691,344.483063 224.925659,348.311188 235.332336,354.779602 
	C235.047394,355.482849 234.616669,355.900085 233.728424,356.611511 
	C232.799316,356.662415 232.327728,356.419067 231.856140,356.175751 
	C221.407394,350.016998 210.340469,345.911682 198.020599,345.847504 
	C196.931625,345.841827 195.845352,345.316254 194.363281,344.882812 
z"/>
<path fill="#6E7B88" opacity="1.000000" stroke="none" 
	d="
M262.010437,355.603882 
	C268.148682,351.267883 274.695892,347.005310 282.604889,346.371643 
	C282.806030,346.862793 283.007172,347.353973 283.208313,347.845123 
	C277.881958,350.347870 272.555634,352.850616 266.742371,355.664978 
	C265.888763,355.989319 265.522064,356.002075 265.155396,356.014801 
	C264.251404,355.923645 263.347412,355.832489 262.010437,355.603882 
z"/>
<path fill="#6E7B88" opacity="1.000000" stroke="none" 
	d="
M272.798950,265.782227 
	C267.952637,269.394012 262.902496,272.757538 257.509766,276.158661 
	C260.031799,269.345947 266.092773,267.120636 272.798950,265.782227 
z"/>
<path fill="#FFFFFF" opacity="1.000000" stroke="none" 
	d="
M212.625977,112.041725 
	C214.712753,111.476814 216.490814,110.984444 218.268875,110.492073 
	C218.450607,110.670609 218.632355,110.849136 218.814087,111.027672 
	C216.882782,112.758400 214.951462,114.489128 212.996246,116.568726 
	C212.609177,117.299423 212.245972,117.681252 211.236252,118.058670 
	C210.066284,118.044388 209.542847,118.034508 209.008118,118.011246 
	C208.996841,117.997864 208.973206,117.973236 208.966217,117.589058 
	C208.955887,116.436409 208.952530,115.667946 208.949188,114.899475 
	C210.071869,113.971069 211.194565,113.042664 212.625977,112.041725 
z"/>
<path fill="#6E7B88" opacity="1.000000" stroke="none" 
	d="
M294.017639,264.455994 
	C288.612946,265.171997 283.134338,265.505554 277.232422,265.688782 
	C282.520660,265.050140 288.232178,264.561859 294.017639,264.455994 
z"/>
<path fill="#B0B9C6" opacity="1.000000" stroke="none" 
	d="
M204.856995,349.563049 
	C210.084961,351.048523 215.490326,352.838287 221.042465,354.915771 
	C215.804291,353.424835 210.419342,351.646088 204.856995,349.563049 
z"/>
<path fill="#414A5C" opacity="1.000000" stroke="none" 
	d="
M251.461075,336.065247 
	C252.000931,339.673767 252.159912,343.371826 251.966064,347.527100 
	C251.423706,348.007812 251.234192,348.031311 251.044678,348.054779 
	C251.056519,344.088135 251.068359,340.121460 251.461075,336.065247 
z"/>
<path fill="#D2DBE2" opacity="1.000000" stroke="none" 
	d="
M276.297913,355.526428 
	C279.798767,353.879883 283.646790,352.115723 287.717224,350.580322 
	C284.174805,352.342316 280.409973,353.875549 276.297913,355.526428 
z"/>
<path fill="#D2DBE2" opacity="1.000000" stroke="none" 
	d="
M219.016586,265.861908 
	C215.396042,265.597504 211.775497,265.333099 208.041824,264.717926 
	C209.334534,264.288239 210.740372,264.209290 212.851425,264.295654 
	C215.376617,264.927948 217.196609,265.394928 219.016586,265.861908 
z"/>
<path fill="#D2DBE2" opacity="1.000000" stroke="none" 
	d="
M204.568481,272.942108 
	C204.065811,271.951874 203.923309,270.846619 203.637756,269.346863 
	C204.090134,267.330261 204.685593,265.708160 205.674149,264.194824 
	C205.687729,267.144806 205.308197,269.985931 204.568481,272.942108 
z"/>
<path fill="#4E5669" opacity="1.000000" stroke="none" 
	d="
M219.408752,265.830261 
	C217.196609,265.394928 215.376617,264.927948 213.273575,264.245972 
	C215.939713,264.299835 218.888901,264.568695 221.969421,265.156982 
	C221.334122,265.583832 220.567520,265.691193 219.408752,265.830261 
z"/>
<path fill="#B0B9C6" opacity="1.000000" stroke="none" 
	d="
M223.252625,356.002747 
	C225.350250,356.396942 227.651505,357.077576 230.066132,358.057648 
	C227.938431,357.667755 225.697357,356.978455 223.252625,356.002747 
z"/>
<path fill="#D2DBE2" opacity="1.000000" stroke="none" 
	d="
M265.024292,356.281311 
	C265.522064,356.002075 265.888763,355.989319 266.530090,355.949707 
	C267.201691,356.503601 267.598663,357.084412 268.038483,358.029724 
	C266.622467,358.635376 265.163635,358.876526 264.021393,359.065369 
	C264.302155,358.254578 264.597687,357.401215 265.024292,356.281311 
z"/>
<path fill="#D2DBE2" opacity="1.000000" stroke="none" 
	d="
M290.270874,350.387695 
	C291.786163,349.646851 293.643646,349.005707 295.727417,348.605469 
	C294.173462,349.393402 292.393250,349.940399 290.270874,350.387695 
z"/>
<path fill="#B0B9C6" opacity="1.000000" stroke="none" 
	d="
M193.329651,347.913879 
	C195.023483,347.721680 196.967941,347.827850 199.024261,348.257874 
	C197.284164,348.458588 195.432220,348.335419 193.329651,347.913879 
z"/>
<path fill="#B0B9C6" opacity="1.000000" stroke="none" 
	d="
M231.900482,356.515045 
	C232.327728,356.419067 232.799316,356.662415 233.522034,357.010620 
	C234.001617,357.916992 234.230072,358.718536 234.458527,359.520050 
	C233.777618,359.478546 233.096710,359.437073 232.207703,359.149536 
	C231.981354,358.220398 231.963074,357.537384 231.900482,356.515045 
z"/>
<path fill="#DAE0E6" opacity="1.000000" stroke="none" 
	d="
M207.096893,122.097366 
	C205.993378,123.374260 204.889847,124.651161 203.514252,126.093582 
	C203.242188,126.259102 203.009979,126.014397 203.001526,125.588051 
	C204.223618,124.003021 205.454193,122.844337 206.787811,121.788559 
	C206.890884,121.891464 207.096909,122.097366 207.096893,122.097366 
z"/>
<path fill="#DAE0E6" opacity="1.000000" stroke="none" 
	d="
M209.019409,118.024628 
	C209.542847,118.034508 210.066284,118.044388 210.975998,118.125198 
	C210.144379,119.424133 208.926498,120.652115 207.402756,121.988739 
	C207.096909,122.097366 206.890884,121.891464 206.920532,121.509552 
	C207.639923,120.093307 208.329666,119.058968 209.019409,118.024628 
z"/>
<path fill="#D2DBE2" opacity="1.000000" stroke="none" 
	d="
M244.361389,352.076538 
	C243.311584,351.252014 242.661423,350.484344 241.898285,349.426544 
	C242.859070,349.079407 243.932877,349.022430 245.409042,348.959717 
	C245.461288,350.013794 245.111176,351.073608 244.361389,352.076538 
z"/>
<path fill="#D2DBE2" opacity="1.000000" stroke="none" 
	d="
M233.465515,270.292786 
	C232.099533,269.941467 230.605148,269.264160 229.097626,268.209717 
	C230.502045,268.544006 231.919586,269.255371 233.465515,270.292786 
z"/>
<path fill="#DAE0E6" opacity="1.000000" stroke="none" 
	d="
M279.591003,114.465622 
	C280.592896,114.828407 281.747131,115.486038 282.949768,116.500732 
	C281.913239,116.158691 280.828278,115.459579 279.591003,114.465622 
z"/>
<path fill="#414A5C" opacity="1.000000" stroke="none" 
	d="
M255.643585,357.219604 
	C256.367645,357.123047 256.855194,357.196991 257.699890,357.366272 
	C257.539764,357.957886 257.022430,358.454224 256.505096,358.950562 
	C256.139069,358.430420 255.773056,357.910278 255.643585,357.219604 
z"/>
<path fill="#525C6D" opacity="1.000000" stroke="none" 
	d="
M239.959061,357.708130 
	C240.450882,357.313660 241.016403,357.213165 242.014374,357.134094 
	C242.438293,357.674042 242.429794,358.192566 242.421295,358.711060 
	C241.625122,358.474731 240.828949,358.238434 239.959061,357.708130 
z"/>
<path fill="#D2DBE2" opacity="1.000000" stroke="none" 
	d="
M225.981155,267.148010 
	C225.003540,266.993439 224.025925,266.838837 223.017960,266.368347 
	C223.732559,266.040100 224.477493,266.027740 225.605713,266.309387 
	C225.986389,266.784943 225.983765,266.966461 225.981155,267.148010 
z"/>
<path fill="#D2DBE2" opacity="1.000000" stroke="none" 
	d="
M238.841949,274.727234 
	C237.974152,274.500153 237.040054,273.955292 236.136200,273.045837 
	C237.036194,273.257294 237.905930,273.833344 238.841949,274.727234 
z"/>
<path fill="#4E5669" opacity="1.000000" stroke="none" 
	d="
M226.323639,267.142700 
	C225.983765,266.966461 225.986389,266.784943 225.983673,266.331116 
	C226.644409,266.173370 227.310471,266.287903 227.990738,266.695923 
	C227.558670,267.038757 227.112396,267.088074 226.323639,267.142700 
z"/>
<path fill="#D2DBE2" opacity="1.000000" stroke="none" 
	d="
M270.225494,357.523071 
	C270.502502,357.133118 271.055450,356.618286 271.924774,356.110596 
	C271.661255,356.544556 271.081329,356.971405 270.225494,357.523071 
z"/>
<path fill="#6E7B88" opacity="1.000000" stroke="none" 
	d="
M251.060120,348.361023 
	C251.234192,348.031311 251.423706,348.007812 251.899704,347.983917 
	C252.310791,348.587921 252.435394,349.192322 252.327499,349.900879 
	C251.755188,349.559082 251.415375,349.113159 251.060120,348.361023 
z"/>
<path fill="#FFFFFF" opacity="1.000000" stroke="none" 
	d="
M209.008118,118.011246 
	C208.329666,119.058968 207.639923,120.093307 206.817474,121.406654 
	C205.454193,122.844337 204.223618,124.003021 202.884888,125.466187 
	C201.924210,125.327156 201.071671,124.883644 200.071411,124.155563 
	C201.476715,122.038338 203.029755,120.205681 205.259262,118.230347 
	C206.948227,118.049522 207.960709,118.011383 208.973206,117.973236 
	C208.973206,117.973236 208.996841,117.997864 209.008118,118.011246 
z"/>
<path fill="#FFFFFF" opacity="1.000000" stroke="none" 
	d="
M241.612839,88.970810 
	C243.295303,89.382263 244.588013,89.765533 245.924255,90.506882 
	C243.710220,90.864944 241.452667,90.864944 239.195114,90.864944 
	C239.173920,90.395149 239.152740,89.925362 239.131546,89.455566 
	C239.828735,89.284584 240.525909,89.113602 241.612839,88.970810 
z"/>
<path fill="#DAE0E6" opacity="1.000000" stroke="none" 
	d="
M208.966217,117.589066 
	C207.960709,118.011383 206.948227,118.049522 205.554794,118.081589 
	C206.219604,117.051880 207.265335,116.028252 208.630127,114.952049 
	C208.952530,115.667946 208.955887,116.436409 208.966217,117.589066 
z"/>
<path fill="#C59C60" opacity="1.000000" stroke="none" 
	d="
M308.715790,172.256622 
	C308.821716,173.537659 308.662872,175.078384 308.225281,176.807068 
	C308.114655,175.502136 308.282837,174.009216 308.715790,172.256622 
z"/>
<path fill="#C59C60" opacity="1.000000" stroke="none" 
	d="
M307.902405,149.393524 
	C308.463165,150.535416 308.998108,152.061249 309.291870,153.786194 
	C308.659271,152.582718 308.267914,151.180084 307.902405,149.393524 
z"/>
<path fill="#C6A77B" opacity="1.000000" stroke="none" 
	d="
M307.276123,178.838928 
	C307.246826,179.965744 306.921326,181.270279 306.326355,182.788116 
	C306.364563,181.673172 306.672211,180.344910 307.276123,178.838928 
z"/>
<path fill="#C59C60" opacity="1.000000" stroke="none" 
	d="
M306.335266,144.224152 
	C306.912720,144.824463 307.408997,145.740616 307.806091,147.013809 
	C307.222626,146.427231 306.738342,145.483612 306.335266,144.224152 
z"/>
<path fill="#C59C60" opacity="1.000000" stroke="none" 
	d="
M303.242462,136.240845 
	C303.804810,136.538849 304.331238,137.145645 304.769226,138.091995 
	C304.189362,137.804245 303.697968,137.176941 303.242462,136.240845 
z"/>
<path fill="#C59C60" opacity="1.000000" stroke="none" 
	d="
M299.837097,129.391968 
	C300.188843,129.532059 300.581421,129.972473 300.971832,130.730652 
	C300.605743,130.596390 300.241821,130.144348 299.837097,129.391968 
z"/>
<path fill="#C59C60" opacity="1.000000" stroke="none" 
	d="
M305.126770,140.187469 
	C305.476776,140.262039 305.819366,140.569138 305.949280,140.969421 
	C305.406219,140.968094 305.200470,140.753891 305.126770,140.187469 
z"/>
<path fill="#C59C60" opacity="1.000000" stroke="none" 
	d="
M305.014709,130.293900 
	C305.536255,130.510025 306.059418,131.023941 306.573547,131.822617 
	C306.048431,131.602142 305.532410,131.096924 305.014709,130.293900 
z"/>
<path fill="#D2DBE2" opacity="1.000000" stroke="none" 
	d="
M217.902710,336.736145 
	C216.160110,336.930908 214.359848,336.755402 212.270187,336.333191 
	C213.935547,336.179565 215.890289,336.272705 217.902710,336.736145 
z"/>
<path fill="#D2DBE2" opacity="1.000000" stroke="none" 
	d="
M204.525055,333.997406 
	C204.135757,333.277557 204.050919,332.488586 204.090591,331.317657 
	C204.419922,331.933228 204.624725,332.930756 204.525055,333.997406 
z"/>
<path fill="#D2DBE2" opacity="1.000000" stroke="none" 
	d="
M225.009918,338.500031 
	C224.480667,338.723053 223.900162,338.665771 223.146576,338.364136 
	C223.635223,338.153107 224.296921,338.186432 225.009918,338.500031 
z"/>
<path fill="#D2DBE2" opacity="1.000000" stroke="none" 
	d="
M228.973999,339.734497 
	C228.434814,339.878418 227.880219,339.726318 227.154297,339.331787 
	C227.641525,339.205719 228.300064,339.322113 228.973999,339.734497 
z"/>
<path fill="#C97703" opacity="1.000000" stroke="none" 
	d="
M239.120148,186.998108 
	C238.813675,186.807236 238.507217,186.616379 238.089233,185.834259 
	C237.003555,184.826385 236.029388,184.409744 235.055222,183.993103 
	C229.081329,177.566193 223.107437,171.139282 217.011612,164.047211 
	C215.945251,162.290588 215.000809,161.199142 214.056381,160.107697 
	C213.955673,159.730362 213.854950,159.353027 213.815140,158.282639 
	C213.152786,156.796021 212.429520,156.002457 211.706253,155.208893 
	C211.077621,154.098419 210.448975,152.987946 209.854492,151.137512 
	C208.774734,145.721375 209.968185,141.951340 212.918762,137.939789 
	C216.879349,132.555069 221.022583,127.911797 227.031326,124.657272 
	C231.400742,122.290649 235.919128,122.247185 240.384323,121.189362 
	C248.942505,119.161903 256.736481,119.776657 264.545746,122.878502 
	C267.498932,124.051498 270.246918,125.981560 272.750885,127.987846 
	C276.386932,130.901215 280.442627,133.704422 282.987549,137.457672 
	C285.938171,141.809296 288.026703,146.974716 289.467804,152.075531 
	C293.075653,164.845459 291.576172,176.969711 282.923676,187.560471 
	C279.422760,191.845596 275.608521,195.874756 271.936859,200.020416 
	C270.543823,199.972672 269.150757,199.924942 267.380157,199.420776 
	C268.089661,197.655258 269.033539,196.181244 270.301300,195.080276 
	C271.773895,193.801376 273.996155,193.181946 275.064667,191.684982 
	C277.134430,188.785294 278.624237,185.471619 280.366394,182.307755 
	C272.956024,176.387741 271.820038,176.641434 264.477264,182.878021 
	C261.710999,185.227554 258.059692,187.433182 254.591187,187.844788 
	C249.538803,188.444305 244.286957,187.362854 239.120148,186.998108 
z"/>
<path fill="#A6732C" opacity="1.000000" stroke="none" 
	d="
M271.929565,200.320145 
	C275.608521,195.874756 279.422760,191.845596 282.923676,187.560471 
	C291.576172,176.969711 293.075653,164.845459 289.467804,152.075531 
	C288.026703,146.974716 285.938171,141.809296 282.987549,137.457672 
	C280.442627,133.704422 276.386932,130.901215 272.750885,127.987846 
	C270.246918,125.981560 267.498932,124.051498 264.545746,122.878502 
	C256.736481,119.776657 248.942505,119.161903 240.384323,121.189362 
	C235.919128,122.247185 231.400742,122.290649 227.031326,124.657272 
	C221.022583,127.911797 216.879349,132.555069 212.918762,137.939789 
	C209.968185,141.951340 208.774734,145.721375 209.824234,150.808167 
	C208.623230,149.144196 207.486633,147.069626 206.082031,144.711823 
	C213.513687,124.802002 236.395035,113.386703 257.051727,117.692848 
	C279.448151,122.361656 295.170105,142.995743 293.945007,164.822510 
	C293.050201,180.763870 285.425903,192.723618 272.301453,201.781036 
	C271.954071,201.415619 271.938141,201.017746 271.929565,200.320145 
z"/>
<path fill="#333534" opacity="1.000000" stroke="none" 
	d="
M234.674591,197.439545 
	C230.734283,194.699524 226.678345,192.107956 222.897598,189.163101 
	C220.674255,187.431320 218.199188,184.934204 220.815430,182.059875 
	C223.505066,179.104935 225.703552,181.894302 228.022446,183.534256 
	C231.727768,186.154694 235.665329,188.451767 239.566116,190.782791 
	C239.949051,191.011612 240.759903,190.524323 241.792877,190.629883 
	C243.236038,191.256607 244.250351,191.914810 245.282074,191.943329 
	C254.130035,192.187897 261.724701,189.211334 268.414642,183.346924 
	C269.857971,182.081696 273.499542,181.217896 274.607086,182.093552 
	C277.307617,184.228699 275.528717,186.993729 273.457764,188.824173 
	C266.307526,195.144104 258.172668,199.360229 248.352112,198.978149 
	C243.779907,198.800278 239.232971,197.972641 234.674591,197.439545 
z"/>
<path fill="#A6732C" opacity="1.000000" stroke="none" 
	d="
M234.781158,197.761948 
	C239.232971,197.972641 243.779907,198.800278 248.352112,198.978149 
	C258.172668,199.360229 266.307526,195.144104 273.457764,188.824173 
	C275.528717,186.993729 277.307617,184.228699 274.607086,182.093552 
	C273.499542,181.217896 269.857971,182.081696 268.414642,183.346924 
	C261.724701,189.211334 254.130035,192.187897 245.282074,191.943329 
	C244.250351,191.914810 243.236038,191.256607 242.123138,190.512589 
	C241.124725,189.291504 240.216797,188.448181 239.214508,187.301483 
	C244.286957,187.362854 249.538803,188.444305 254.591187,187.844788 
	C258.059692,187.433182 261.710999,185.227554 264.477264,182.878021 
	C271.820038,176.641434 272.956024,176.387741 280.366394,182.307755 
	C278.624237,185.471619 277.134430,188.785294 275.064667,191.684982 
	C273.996155,193.181946 271.773895,193.801376 270.301300,195.080276 
	C269.033539,196.181244 268.089661,197.655258 266.978455,199.303528 
	C263.507507,200.167999 259.885986,200.191162 256.648499,201.317902 
	C248.707336,204.081650 241.434677,203.947586 234.781158,197.761948 
z"/>
<path fill="#A6732C" opacity="1.000000" stroke="none" 
	d="
M214.070145,160.437012 
	C215.000809,161.199142 215.945251,162.290588 216.874756,163.730713 
	C215.934540,162.975037 215.009216,161.870682 214.070145,160.437012 
z"/>
<path fill="#A6732C" opacity="1.000000" stroke="none" 
	d="
M235.184601,184.264496 
	C236.029388,184.409744 237.003555,184.826385 237.971252,185.584778 
	C237.081161,185.462967 236.197571,184.999420 235.184601,184.264496 
z"/>
<path fill="#A6732C" opacity="1.000000" stroke="none" 
	d="
M211.754288,155.542145 
	C212.429520,156.002457 213.152786,156.796021 213.793533,157.990143 
	C213.074783,157.552277 212.438553,156.713837 211.754288,155.542145 
z"/>
<path fill="#D2DBE2" opacity="1.000000" stroke="none" 
	d="
M294.755981,343.985382 
	C295.530182,343.980072 295.791473,344.148407 295.986572,344.705719 
	C292.676239,346.157135 289.336487,347.367981 285.996704,348.578827 
	C285.750977,347.802185 285.505249,347.025543 285.259521,346.248901 
	C288.285919,345.502808 291.312317,344.756714 294.755981,343.985382 
z"/>
</svg>